<svg version="1.0" xmlns="http://www.w3.org/2000/svg"
 width="867.000000pt" height="733.000000pt" viewBox="0 0 867.000000 733.000000"
 preserveAspectRatio="xMidYMid meet">

<g transform="translate(0.000000,733.000000) scale(0.100000,-0.100000)"
fill="#525351" stroke="none">
<path d="M4232 7169 c-24 -4 -71 -23 -103 -41 -38 -22 -332 -276 -841 -729
-2428 -2158 -3005 -2673 -3021 -2699 -24 -38 -24 -111 0 -152 10 -17 34 -39
53 -49 34 -18 151 -19 4008 -19 4373 0 4021 -5 4062 62 29 48 34 88 15 134
-16 41 -37 60 -980 899 l-210 186 -5 419 -5 419 -29 30 -30 31 -341 0 -341 0
-28 -29 c-22 -23 -30 -43 -35 -85 l-6 -55 -910 809 c-643 572 -925 816 -962
835 -87 42 -189 54 -291 34z"/>
<path d="M930 3122 c-20 -10 -37 -27 -41 -42 -4 -14 -7 -695 -8 -1513 -1
-1638 -5 -1533 60 -1556 46 -16 6798 -16 6832 0 14 6 30 22 36 36 17 37 15
3009 -2 3043 -19 37 -61 54 -99 41 -61 -22 -57 84 -58 -1498 l0 -1453 -435 0
-435 0 0 1225 0 1225 -2450 0 -2450 0 0 -1225 0 -1225 -410 0 -410 0 0 1434
c0 1043 -3 1442 -11 1466 -8 22 -22 37 -45 46 -40 17 -32 17 -74 -4z m5670
-1807 l0 -1135 -2270 0 -2270 0 0 1135 0 1135 2270 0 2270 0 0 -1135z"/>
<path d="M2290 1855 l0 -85 270 0 270 0 0 85 0 85 -270 0 -270 0 0 -85z"/>
<path d="M3010 1855 l0 -85 270 0 270 0 0 85 0 85 -270 0 -270 0 0 -85z"/>
<path d="M3730 1855 l0 -85 270 0 270 0 0 85 0 85 -270 0 -270 0 0 -85z"/>
<path d="M4450 1855 l0 -85 270 0 270 0 0 85 0 85 -270 0 -270 0 0 -85z"/>
<path d="M5170 1855 l0 -85 270 0 270 0 0 85 0 85 -270 0 -270 0 0 -85z"/>
<path d="M5890 1855 l0 -85 260 0 260 0 0 85 0 85 -260 0 -260 0 0 -85z"/>
<path d="M2277 1453 c-4 -3 -7 -44 -7 -90 l0 -83 270 0 270 0 0 90 0 90 -263
0 c-145 0 -267 -3 -270 -7z"/>
<path d="M2997 1453 c-4 -3 -7 -44 -7 -90 l0 -83 270 0 270 0 0 90 0 90 -263
0 c-145 0 -267 -3 -270 -7z"/>
<path d="M3717 1453 c-4 -3 -7 -44 -7 -90 l0 -83 270 0 270 0 0 90 0 90 -263
0 c-145 0 -267 -3 -270 -7z"/>
<path d="M4437 1453 c-4 -3 -7 -44 -7 -90 l0 -83 270 0 270 0 0 90 0 90 -263
0 c-145 0 -267 -3 -270 -7z"/>
<path d="M5157 1453 c-4 -3 -7 -44 -7 -90 l0 -83 270 0 270 0 0 90 0 90 -263
0 c-145 0 -267 -3 -270 -7z"/>
<path d="M5877 1453 c-4 -3 -7 -44 -7 -90 l0 -83 260 0 260 0 0 90 0 90 -253
0 c-140 0 -257 -3 -260 -7z"/>
<path d="M2300 880 l0 -90 265 0 265 0 0 90 0 90 -265 0 -265 0 0 -90z"/>
<path d="M3020 880 l0 -90 265 0 265 0 0 90 0 90 -265 0 -265 0 0 -90z"/>
<path d="M3740 880 l0 -90 265 0 265 0 0 90 0 90 -265 0 -265 0 0 -90z"/>
<path d="M4460 880 l0 -90 265 0 265 0 0 90 0 90 -265 0 -265 0 0 -90z"/>
<path d="M5180 880 l0 -90 265 0 265 0 0 90 0 90 -265 0 -265 0 0 -90z"/>
<path d="M5900 880 l0 -90 255 0 255 0 0 90 0 90 -255 0 -255 0 0 -90z"/>
</g>
</svg>
