<?xml version="1.0" standalone="no"?>
<!DOCTYPE svg PUBLIC "-//W3C//DTD SVG 20010904//EN"
 "http://www.w3.org/TR/2001/REC-SVG-20010904/DTD/svg10.dtd">
<svg version="1.0" xmlns="http://www.w3.org/2000/svg"
 width="256.000000pt" height="256.000000pt" viewBox="0 0 256.000000 256.000000"
 preserveAspectRatio="xMidYMid meet">

<g transform="translate(0.000000,256.000000) scale(0.100000,-0.100000)"
fill="#2A5285" stroke="none">
<path d="M349 2539 c-2 -8 -2 -237 1 -509 l5 -495 33 -94 c44 -126 100 -219
190 -313 127 -133 288 -222 450 -250 39 -6 72 -16 72 -20 0 -4 -169 -8 -375
-8 l-375 0 0 -58 c0 -77 32 -199 75 -291 109 -230 307 -393 560 -463 78 -21
94 -21 655 -21 l575 1 -3 63 c-14 241 -168 500 -377 634 -153 98 -255 127
-480 134 l-170 6 -5 510 c-5 500 -6 511 -29 580 -81 243 -249 434 -468 531
-117 52 -326 91 -334 63z"/>
</g>
</svg>
