<?xml version="1.0" encoding="utf-8" ?>
<svg xmlns="http://www.w3.org/2000/svg" xmlns:xlink="http://www.w3.org/1999/xlink" width="767" height="959">
	<path fill="none" transform="matrix(0.749023 0 0 0.749219 0.0078125 0)" d="M0 0L1024 0L1024 1278.91C1023.51 1279.19 1023.14 1279.43 1022.62 1279.61C1018.64 1280.96 976.707 1280 969.618 1280L807.041 1280.01L7.90141 1280C5.15956 1279.99 2.44878 1280.3 0 1278.91L0 0Z"/>
	<path fill="#3D3C40" transform="matrix(0.749023 0 0 0.749219 0.0078125 0)" d="M873.678 2.29829C873.844 2.45429 874.032 2.58992 874.176 2.7663C876.438 5.53516 876.135 23.1485 876.243 27.6956C877.332 28.4787 878.669 29.3875 879.532 30.4101C880.483 31.5368 881.107 33.1157 880.75 34.5933C880.285 36.5197 878.502 37.5361 876.999 38.6369C877.747 56.2176 883.657 74.8113 887.966 91.8287C893.245 112.832 898.729 133.783 904.415 154.679C909.212 172.315 914.347 189.959 918.262 207.816C922.376 210.519 926.517 213.695 929.399 217.753C936.758 228.111 924.774 235.191 921.801 244.418C919.888 250.354 920.164 257.668 919.028 263.895C927.743 266.883 935.25 272.621 940.421 280.244C944.49 286.251 947.285 293.785 945.759 301.099C944.12 308.958 938.556 314.166 932.115 318.43L932.154 391.849C940.164 396.257 957.939 405.243 963.955 411.011C965.789 412.77 966.912 414.725 967.48 417.202C969.065 424.113 967.727 444.43 967.816 452.59C957.671 466.289 947.479 479.752 937.754 493.782L937.84 749.33C937.816 796.584 937.025 843.96 938.042 891.195C939.933 891.769 942.294 892.248 943.676 893.739C946.575 896.865 944.742 907.716 944.691 912.095C951.294 914.049 958.964 915.185 965.053 918.451C967.216 919.611 968.804 920.777 969.561 923.164C969.435 925.915 965.778 929.918 964.273 932.406C962.074 933.649 959.652 934.58 957.339 935.595C956.856 947.806 957.324 960.119 957.516 972.335C974.989 993.993 984.812 1014.41 987.892 1042.36C993.317 1045.85 1009.48 1047.16 1016.63 1049.72C1019.16 1050.63 1021.12 1051.72 1022.31 1054.18C1022.94 1060.62 1015.56 1062.23 1012.54 1066.41C1011.05 1068.47 1010.86 1071.63 1009.63 1073.91C1008.6 1075.84 1006.78 1076.89 1004.75 1077.5L1005.1 1169.69C1005.14 1185.33 1005.94 1201.45 1004.8 1217.03L1005.35 1217.68L1004.43 1218.05L1004.45 1219.38C1003.33 1219.74 1002.2 1220.06 1001.05 1220.34C945.601 1233.78 889.568 1245.28 833.888 1257.79L785.471 1268.83C775.71 1271.11 765.315 1274.4 755.343 1275.16C746.966 1275.8 737.604 1274.4 729.176 1273.89L683.323 1271.35L535.359 1263.06C515.722 1261.86 496.049 1261.28 476.405 1260.19C364.886 1253.78 253.325 1248.13 141.73 1243.23L74.0318 1239.47C58.3434 1238.73 41.934 1238.75 26.3679 1236.7C25.1367 1236.54 24.1454 1236.15 23.0942 1235.51C21.776 1228.74 22.8556 1219.94 22.8629 1212.92L22.6654 1168.04L22.7577 976.709C20.2227 977.121 17.8787 977.682 15.3451 977.01C12.4161 974.64 12.467 971.88 12.0749 968.357C8.38035 967.731 4.79129 966.809 1.16731 965.864C1.18155 960.344 1.11964 954.824 0.981582 949.306C21.2641 943.064 41.2424 934.989 61.2022 927.768C91.2258 916.906 121.365 906.453 151.252 895.196L151.366 818.196L151.312 789.977C148.015 788.024 146.037 786.534 144.636 782.812C143.347 779.387 143.234 775.774 144.913 772.459C146.574 769.178 149.15 768.27 152.385 767.118C151.554 745.249 154.037 723.251 149.019 701.794C147.322 700.432 145.491 698.945 144.217 697.176C142.773 695.173 141.687 692.816 142.202 690.299C143.21 685.382 148.044 682.894 151.894 680.437C150.446 674.048 149.56 667.69 150.319 661.138C152.627 641.225 166.2 631.75 180.559 620.389C191.952 611.375 180.197 611.86 181.5 604.359C181.901 602.051 183.607 600.834 185.367 599.506C185.284 590.709 185.795 582.111 187.516 573.463C190.062 581.56 190.204 590.77 190.827 599.185C192.526 600.067 193.9 600.983 194.859 602.699C197.409 607.262 192.224 609.66 191.491 613.553C191.199 615.104 191.799 616.43 192.794 617.593C194.876 620.027 197.878 621.9 200.437 623.819C206.728 628.539 213.151 633.832 217.491 640.456C225.457 652.612 226.266 665.622 223.403 679.479C223.784 679.731 224.163 679.986 224.538 680.246C227.699 682.444 232.492 685.652 233.056 689.733C233.688 694.312 230.134 698.261 227.686 701.782C227.283 716.006 226.494 730.191 226.232 744.427L298.678 721.955C298.774 709.925 300.187 676.125 297.618 666.609C294.573 655.333 287.296 643.532 285.421 632.239C283.842 622.728 287.511 616.046 292.932 608.543C291.767 557.386 309.755 504.079 338.498 462.087C377.427 405.215 430.366 373.249 497.544 360.721C497.489 358.329 497.075 355.096 498.367 352.986C501.43 347.984 512.656 346.756 518.185 345.299C518.173 340.911 518.68 336.477 519.014 332.102C516.975 329.895 514.716 327.666 512.959 325.231C510.142 321.299 508.994 316.413 509.766 311.639C510.861 305.071 514.878 300.868 520.106 297.175C520.108 296.782 520.114 296.39 520.122 295.998C520.346 286.742 520.896 256.745 523.59 249.757C524.142 248.324 525.346 247.201 526.433 246.16C523.455 243.878 520.188 241.089 518.144 237.923C515.709 234.149 515.124 230.206 516.043 225.837C517.117 220.736 520.054 215.23 524.613 212.522C527.385 210.876 533.44 209.326 536.701 210.313C537.707 210.617 537.518 210.721 537.95 211.579C537.058 214.728 533.845 217.342 531.956 220.03C530.226 222.49 528.808 225.315 529.475 228.408C531.453 237.574 541.325 232.168 546.5 235.229C546.707 236.307 546.663 236.765 546.225 237.827C544.704 241.512 539.051 243.751 535.61 245.13C535.699 245.385 535.784 245.642 535.876 245.896C541.206 260.678 539.513 280.545 540.954 296.371C545.434 300.422 549.189 305.702 549.509 311.943C549.9 319.575 545.189 324.783 540.385 330.022C540.616 335.067 540.922 340.058 541.465 345.082C546.991 346.336 558.242 346.459 561.485 351.406C563.333 354.224 562.163 357.897 561.659 360.992C606.989 367.856 649.354 387.721 683.616 418.178C714.184 445.346 734.489 473.528 749.989 511.413C755.818 525.659 760.8 540.448 763.733 555.583C767.073 572.814 768.128 590.283 769.154 607.768C773.337 613.679 776.053 619.485 775.783 626.876C775.35 638.721 769.995 651.01 761.425 659.112L761.432 676.962C780.759 684.096 800.046 691.585 819.566 698.158C819.589 631.809 820.747 565.281 819.352 498.955L799.84 468.279C796.224 462.626 790.668 455.842 788.462 449.534C787.44 446.612 788.051 413.806 789.471 410.824C795.039 406.084 809.575 403.021 816.875 400.704L817.02 351.166C817.041 340.905 817.434 330.42 816.56 320.196C802.416 307.334 806.55 306.056 804.727 289.321L804.636 288.517C810.112 279.275 817.643 274.217 826.952 269.245C827.132 261.397 827.225 253.548 827.232 245.698C824.946 243.001 822.577 240.309 820.622 237.357C817.972 233.355 816.429 228.665 817.341 223.833C818.147 219.563 821.752 216.33 823.309 212.314C826.578 203.88 828.636 194.623 831.179 185.92C845.403 137.242 859.96 88.4027 869.663 38.5756C868.672 37.7827 867.481 36.9666 866.639 36.0071C865.582 34.8022 865.587 33.7534 865.672 32.2524C866.76 29.9859 868.321 28.8956 870.277 27.4483C870.388 18.6209 870.78 10.6949 873.678 2.29829Z"/>
	<path fill="#FEFDFA" transform="matrix(0.749023 0 0 0.749219 0.0078125 0)" d="M463.733 870.153L464.923 870.037C465.867 871.286 465.787 872.324 465.845 873.892C466.189 883.061 465.76 892.427 465.851 901.631C466.211 938.046 465.705 974.456 466.193 1010.87C459.391 1011.59 452.599 1012.92 445.852 1014.04C445.777 1004.13 445.778 994.21 445.853 984.294C445.887 966.259 446.125 951.514 432.638 937.604C424.323 929.028 413.118 923.802 401.107 923.674C387.599 923.531 375.443 930.825 366.133 940.111C347.82 958.373 346.264 976.134 346.338 1000.47L346.35 1028.23C346.019 1028.45 345.542 1028.8 345.156 1028.98C341.933 1030.47 330.771 1032.21 327.414 1030.94C327.161 1008.81 332.514 981.868 315.368 964.418C307.932 956.765 297.717 952.443 287.045 952.434C274.832 952.493 263.184 959.51 254.86 968.035C233.42 989.991 238.21 1016.76 238.425 1044.66C238.101 1044.92 237.765 1045.22 237.391 1045.42C234.549 1046.92 224.472 1048.21 221.42 1047.34C221.133 1030.88 224.535 1005.22 216.327 991.042C211.639 982.943 204.107 976.527 194.97 974.148C184.904 971.526 174.39 973.447 165.556 978.796C152.52 986.69 144.347 1000.11 140.855 1014.65C138.485 1026.31 139.836 1047.88 139.827 1060.62C139.531 1060.83 139.117 1061.15 138.77 1061.31C135.496 1062.85 126.155 1064.01 122.928 1062.78C122.846 1054.32 122.846 1045.86 122.928 1037.4C122.957 1023.57 123.229 1012.23 112.984 1001.61C106.534 994.93 97.6364 991.423 88.3808 991.354C77.7737 991.276 67.8499 996.312 60.4299 1003.67C38.4654 1025.46 41.808 1048.89 41.7722 1076.97C41.2383 1077.44 40.7361 1077.89 40.0905 1078.2C37.7994 1079.29 33.0673 1079.96 30.6472 1079.17C30.5455 1044.49 29.9236 1009.8 30.1895 975.121L463.733 870.153Z"/>
	<path fill="#FEFDFA" transform="matrix(0.749023 0 0 0.749219 0.0078125 0)" d="M722.467 1042.57C722.765 1042.71 723.243 1042.95 723.585 1043.05C727.071 1044.03 746.715 1043.71 749.513 1042.08L749.487 1265.96C749.024 1266.22 748.825 1266.36 748.273 1266.53C745.011 1267.53 663.633 1263.19 659.85 1261.43C659.301 1261.73 659.276 1261.79 658.562 1261.96C655.17 1262.78 632.651 1261.31 629.349 1259.51C629.025 1235.76 628.96 1212 629.154 1188.24L628.946 1042.85C629.62 1043.2 629.697 1043.27 630.503 1043.53C633.78 1044.58 711.071 1044.01 719.773 1043.45C720.877 1043.37 721.516 1043.09 722.467 1042.57Z"/>
	<path fill="#3D3C40" transform="matrix(0.749023 0 0 0.749219 0.0078125 0)" d="M717.937 1077.75C720.866 1078.87 723.396 1079.83 725.62 1082.16C728.807 1085.5 730.771 1089.77 731.75 1094.24C734.17 1105.29 732.58 1135.48 732.508 1148.38C731.93 1148.74 731.434 1149.05 730.764 1149.22C727.5 1150.02 721.568 1150.34 718.613 1148.81C718.116 1149.12 717.917 1149.29 717.4 1149.49C714.313 1150.73 706.656 1150.8 703.766 1149.44C703.879 1136.27 701.864 1102.27 705.178 1091.82C707.385 1084.87 711.564 1081.01 717.937 1077.75Z"/>
	<path fill="#FEFDFA" transform="matrix(0.749023 0 0 0.749219 0.0078125 0)" d="M464.811 1018.33L465.523 1018.42C465.969 1019.14 466.139 1019.63 466.166 1020.49C466.686 1037.34 465.775 1054.49 465.735 1071.37C465.684 1093.41 466.4 1115.76 465.316 1137.75C464.872 1138.06 464.94 1138.04 464.316 1138.32C462.372 1139.2 459.708 1138.98 457.767 1138.24C457.427 1122.04 454.711 1107.84 445.834 1094.02C438.498 1082.6 427.837 1073.87 414.332 1071.11C402.56 1068.71 389.528 1070.37 379.406 1077.08C358.877 1090.68 352.868 1113.92 348.319 1136.49C345.637 1126.8 345.236 1117.89 340.652 1108.51C335.194 1097.34 324.98 1086.98 312.982 1083.04C305.462 1080.57 297.764 1081.16 290.721 1084.77C276.339 1092.14 269.356 1107.64 265.157 1122.44C264.046 1126.35 263.485 1130.41 262.191 1134.26C262.139 1134.42 262.083 1134.57 262.028 1134.73C260.315 1129.72 259.62 1124.4 257.708 1119.34C253.662 1108.62 245.679 1097.64 234.959 1092.87C228.7 1090.08 221.927 1089.67 215.522 1092.22C200.858 1098.06 192.152 1115.27 187.311 1129.3C185.976 1133.17 185.345 1137.57 183.679 1141.24C183.541 1141.54 183.396 1141.84 183.254 1142.14C181.313 1137.06 180.346 1131.64 178.365 1126.51C174.349 1116.14 166.701 1105.46 156.195 1100.92C150.608 1098.5 144.67 1097.8 138.919 1100.21C125.761 1105.75 118.557 1122.02 113.624 1134.5C113.198 1136.93 112.635 1139.3 112.045 1141.69C108.04 1131.86 106.612 1124.34 98.813 1116.21C93.636 1110.82 86.8777 1107.36 79.3174 1107.25C72.0928 1107.15 65.9069 1110.59 60.8729 1115.54C50.6326 1125.6 44.1689 1142.05 42.1061 1156.04C40.9517 1163.86 42.3076 1172.09 42.4198 1179.98C42.6523 1196.32 42.4453 1212.69 42.4036 1229.04C41.7765 1229.38 41.7246 1229.45 40.9141 1229.63C38.0737 1230.26 33.0472 1229.44 30.6194 1227.86L30.5811 1086.67C33.5465 1087.54 118.32 1072.03 129.725 1070.1C158.984 1065.15 188.388 1060.87 217.711 1056.3C260.381 1049.36 303.104 1042.75 345.877 1036.48C385.574 1030.78 425.22 1024.73 464.811 1018.33Z"/>
	<path fill="#FEFDFA" transform="matrix(0.749023 0 0 0.749219 0.0078125 0)" d="M493.826 571.525C494.074 571.483 494.319 571.404 494.57 571.401C496.679 571.37 499.696 575.256 501.432 576.719L501.466 643.463C499.336 643.686 496.739 643.812 494.776 644.71C489.019 647.343 493.428 651.933 491.487 655.718C488.982 660.604 438.183 676.498 429.572 679.474C428.181 678.253 426.799 676.846 424.896 676.567C414.112 674.988 366.436 688.364 358.035 695.317C355.201 697.663 355.126 700.297 354.892 703.691C341.646 707.718 328.442 711.728 315.329 716.178L306.773 719.299C306.153 692.421 306.369 665.475 306.28 638.59C345.954 592.521 436.157 576.791 493.826 571.525Z"/>
	<path fill="#3D3C40" transform="matrix(0.749023 0 0 0.749219 0.0078125 0)" d="M469.718 580.643C470.481 580.603 471.224 580.56 471.988 580.623C475.857 580.946 479.018 582.949 481.445 585.92C484.737 589.948 486.425 595.316 487.354 600.357C489.573 612.382 489.249 642.839 488.124 655.584C482.65 656.77 476.883 657.415 471.321 658.028C465.513 658.823 459.757 660 453.997 661.087C453.693 645.474 451.977 607.474 456.922 594.465C459.417 587.9 463.278 583.573 469.718 580.643Z"/>
	<path fill="#3D3C40" transform="matrix(0.749023 0 0 0.749219 0.0078125 0)" d="M418.996 588.211C419.718 588.151 420.439 588.095 421.163 588.081C424.105 588.025 426.542 589.235 428.613 591.297C439.533 602.167 435.903 646.928 436.321 663.593C430.623 664.865 424.956 666.274 419.325 667.817C414.387 669.177 409.354 670.259 404.369 671.437C402.784 660.121 402.699 617.192 405.67 606.207C407.892 597.988 411.565 592.493 418.996 588.211Z"/>
	<path fill="#3D3C40" transform="matrix(0.749023 0 0 0.749219 0.0078125 0)" d="M369.918 602.498C370.256 602.468 370.593 602.428 370.932 602.408C373.771 602.233 376.02 603.014 378.055 605.019C388.987 615.786 385.743 660.663 385.669 675.811C379.9 677.513 374.312 679.549 368.686 681.666C364.672 683.21 360.741 685.12 356.804 686.857C357.098 668.269 354.765 642.975 357.416 625.266C358.799 616.027 362.304 608.134 369.918 602.498Z"/>
	<path fill="#3D3C40" transform="matrix(0.749023 0 0 0.749219 0.0078125 0)" d="M328.534 621.099C331.187 621.387 333.164 622.295 335.094 624.172C346.055 634.826 343.16 678.761 343.244 694.284C337.561 697.751 332.041 701.309 326.636 705.198C324.188 707.164 321.683 708.992 319.107 710.787L319.053 710.301L317.888 711.543C315.687 706.618 316.895 672.387 316.967 664.586C317.101 650.008 317.475 631.96 328.534 621.099Z"/>
	<path fill="#F9C6C0" transform="matrix(0.749023 0 0 0.749219 0.0078125 0)" d="M921.528 1065.03C921.918 1065.2 922.32 1065.35 922.725 1065.48C924.971 1066.24 926.992 1065.76 929.041 1064.73L929.06 1227.81C928.787 1228.03 928.283 1228.46 927.939 1228.65C923.864 1230.86 910.781 1232.68 905.452 1233.88C882.631 1239.04 859.691 1244.97 836.673 1249.1C835.134 1249.38 834.104 1249.62 832.59 1249.17C832.373 1249.32 832.161 1249.48 831.941 1249.63C830.159 1250.85 828.28 1250.98 826.246 1250.51L826.335 1065.35C826.833 1065.63 827.114 1065.82 827.634 1066C832.397 1067.59 908.977 1066.97 918.673 1066.03C919.804 1065.92 920.548 1065.56 921.528 1065.03Z"/>
	<path fill="#3D3C40" transform="matrix(0.749023 0 0 0.749219 0.0078125 0)" d="M895.107 1096.44C897.582 1097.27 899.883 1098.76 901.745 1100.59C910.381 1109.06 908.944 1122.48 908.873 1133.51L908.711 1154.08C908.135 1154.39 908.168 1154.4 907.431 1154.64C904.635 1155.56 901.255 1155.33 898.692 1153.93C898.054 1154.3 897.496 1154.62 896.771 1154.79C893.537 1155.54 888.083 1155.41 885.187 1153.81C885.225 1141.67 884.17 1129.29 884.801 1117.19C885.27 1108.19 888.499 1102.48 895.107 1096.44Z"/>
	<path fill="#F9C6C0" transform="matrix(0.749023 0 0 0.749219 0.0078125 0)" d="M619.043 1044.51C619.349 1044.64 619.682 1044.72 619.96 1044.9C620.171 1045.04 620.313 1045.26 620.48 1045.45C621.842 1047.01 621.326 1126.57 621.329 1134.36L621.338 1258.98C620.688 1259.37 620.677 1259.42 619.835 1259.67C615.564 1260.95 557.753 1257.34 550.031 1256.35C548.717 1256.18 547.813 1255.83 546.671 1255.16C545.976 1255.5 545.233 1255.88 544.473 1256.05C542.806 1256.42 541.4 1255.71 540.008 1254.89L540.014 1129.29C540.04 1106.4 539.64 1083.4 540.644 1060.53C543.68 1061.24 615.341 1046.77 619.043 1044.51Z"/>
	<path fill="#FEFDFA" transform="matrix(0.749023 0 0 0.749219 0.0078125 0)" d="M506.413 861.005C524.706 865.793 542.91 870.917 561.015 876.376C561.346 881.209 561.733 882.932 565.176 886.399C565.326 901.194 565.39 915.989 565.366 930.784C565.386 939.786 564.806 949.376 566.194 958.265C555.477 979.669 549.404 1000.04 546.265 1023.75C540.44 1026.14 522.715 1028.03 518.827 1031.75C516.489 1033.99 525.352 1049.18 526.782 1052.05C528.484 1055.46 530.978 1059.54 531.635 1063.27C532.396 1067.59 531.917 1072.61 531.923 1077.03L531.925 1104.84L531.84 1206.09L531.784 1254.55C531.459 1254.7 530.919 1254.98 530.538 1255.08C527.036 1256 509.068 1254.69 506.349 1253.2L506.413 861.005Z"/>
	<path fill="#FEFDFA" transform="matrix(0.749023 0 0 0.749219 0.0078125 0)" d="M895.364 489.081C906.829 495.137 918.741 500.535 930.403 506.217L930.672 764.069L930.934 850.148C930.924 862.704 932.022 876.445 930.683 888.85C918.763 885.615 906.96 881.932 895 878.853C894.294 859.787 894.887 840.534 894.93 821.447C894.776 785.2 894.881 748.952 895.243 712.706L895.733 588.64C895.639 555.448 894.881 522.277 895.364 489.081Z"/>
	<path fill="#3D3C40" transform="matrix(0.749023 0 0 0.749219 0.0078125 0)" d="M909.565 719.24C910.856 719.262 911.84 719.438 913.073 719.766C914.873 721.449 915.42 723.018 915.849 725.435C916.904 731.38 917.308 745.616 913.763 750.648L910.829 749.968C908.849 748.44 908.294 747.187 907.823 744.722C906.599 738.315 905.811 724.765 909.565 719.24Z"/>
	<path fill="#3D3C40" transform="matrix(0.749023 0 0 0.749219 0.0078125 0)" d="M910.305 818.38C911.237 818.5 912.024 818.764 912.916 819.049C915.093 821.329 915.567 824.337 915.826 827.386C916.391 834.023 917.23 846.19 912.934 851.3C912.09 851.271 911.248 851.086 910.414 850.949C908.588 849.497 908.137 847.999 907.801 845.714C906.793 838.867 906.165 823.933 910.305 818.38Z"/>
	<path fill="#3D3C40" transform="matrix(0.749023 0 0 0.749219 0.0078125 0)" d="M909.55 622.984C910.586 623.013 911.751 622.972 912.693 623.449C914.157 624.191 914.867 625.548 915.237 627.095C916.663 633.049 916.712 647.794 913.638 652.955C912.51 652.94 911.464 653.125 910.465 652.551C909.129 651.784 908.538 650.372 908.172 648.939C906.595 642.765 906.503 628.534 909.55 622.984Z"/>
	<path fill="#3D3C40" transform="matrix(0.749023 0 0 0.749219 0.0078125 0)" d="M910.149 517.094L912.395 517.392C914.829 519.287 915.463 521.998 915.826 524.953C916.459 530.111 916.998 541.084 913.751 545.305C912.525 545.212 911.577 545.18 910.495 544.511C909.46 543.871 908.922 542.487 908.626 541.347C906.903 534.719 906.703 523.09 910.149 517.094Z"/>
	<path fill="#FEFDFA" transform="matrix(0.749023 0 0 0.749219 0.0078125 0)" d="M886.666 488.786L887.764 488.604C887.988 488.851 888.298 489.041 888.434 489.345C890.019 492.888 888.729 700.088 888.615 722.382C873.697 718.742 858.806 711.993 844.269 706.913C838.335 705.128 832.546 702.925 826.735 700.782L826.446 506.96C846.337 500.331 866.662 495.068 886.666 488.786Z"/>
	<path fill="#3D3C40" transform="matrix(0.749023 0 0 0.749219 0.0078125 0)" d="M855.843 622.97C857.111 622.99 858.802 622.89 859.924 623.554C861.952 624.755 863.181 627.616 863.858 629.738C865.819 635.883 866.885 657.046 863.865 662.431C862.84 664.259 861.303 664.657 859.395 665.233C857.369 665.774 855.155 666.54 853.052 666.591C852.038 666.616 852.249 666.787 851.625 666.124C850.183 664.593 850.196 660.979 850.148 658.941C849.902 648.699 848.605 630.587 855.843 622.97Z"/>
	<path fill="#3D3C40" transform="matrix(0.749023 0 0 0.749219 0.0078125 0)" d="M858.46 514.217L858.71 514.248C859.571 514.35 860.511 514.438 861.323 514.76C862.939 515.4 864.175 517.526 864.814 519.034C867.24 524.762 867.992 539.685 865.349 545.331C864.532 547.076 862.76 547.609 861.079 548.274C859.882 548.636 858.625 549.062 857.392 549.283C855.72 549.581 855.037 549.527 853.689 548.58C852.55 546.307 852.32 544.116 852.324 541.605C852.339 532.417 851.461 521.177 858.46 514.217Z"/>
	<path fill="#F9C6C0" transform="matrix(0.749023 0 0 0.749219 0.0078125 0)" d="M757.059 1042.58C762.018 1045.14 812.589 1059.53 817.959 1060.1C818.588 1067.88 818.204 1075.92 818.183 1083.73L818.166 1121.79L818.233 1252.46C818.112 1252.56 818.001 1252.67 817.872 1252.76C815.434 1254.46 809.647 1255.56 806.76 1254.98C806.491 1255.21 806.099 1255.57 805.773 1255.76C802.232 1257.83 760.257 1266.95 757.261 1266L756.973 1116.92L756.819 1070.16C756.773 1061.02 756.32 1051.68 757.059 1042.58Z"/>
	<path fill="#F9C6C0" transform="matrix(0.749023 0 0 0.749219 0.0078125 0)" d="M389.083 755.85C398.886 754.538 409.421 755.932 418.197 760.582C436.195 770.119 448.979 789.599 455.401 808.462C457.836 815.614 459.183 823.108 461.392 830.34C447.191 833.389 432.467 834.53 418.178 837.306C390.425 842.697 362.907 849.58 335.248 855.49C315.253 860.13 295.18 864.426 275.038 868.376C278.423 860.985 280.815 853.032 283.977 845.512C290.053 831.061 299.251 817.36 309.153 805.243C328.098 782.061 358.55 758.961 389.083 755.85Z"/>
	<path fill="#F9C6C0" transform="matrix(0.749023 0 0 0.749219 0.0078125 0)" d="M724.828 737.721C725.682 737.628 726.504 737.552 727.363 737.525C748.463 736.861 767.684 747.182 782.732 761.371C808.759 785.913 822.949 823.544 824.107 858.858C812.53 855.674 801.141 851.778 789.61 848.418C789.845 838.619 788.974 827.959 785.01 818.871C784.084 816.75 782.771 814.121 780.429 813.332C779.331 812.961 777.944 813.087 776.92 813.679C772.873 816.019 771.478 823.518 770.505 827.703C769.897 832.805 769.624 837.841 769.446 842.97C754.174 838.472 738.835 834.201 723.436 830.159C723.344 821.223 722.937 810.107 718.637 802.024C717.626 800.124 715.783 797.248 713.483 796.767C712.019 796.461 710.684 796.879 709.545 797.82C703.388 802.912 703.329 817.495 702.959 824.856C691.081 821.77 679.317 817.718 667.542 814.217C667.541 794.615 671.228 776.362 683.673 760.585C694.081 747.391 708.223 739.753 724.828 737.721Z"/>
	<path fill="#FEFDFA" transform="matrix(0.749023 0 0 0.749219 0.0078125 0)" d="M679.323 865.172L813.055 899.631C838.655 906.226 864.605 911.83 889.98 919.231C888.83 922.874 888.442 930.211 887.038 932.863C884.185 938.251 879.347 938.28 877.465 945.52C862.914 950.831 850.629 958.024 838.798 968.068C826.612 979.542 817.673 992.424 810.785 1007.62C809.019 1011.52 807.868 1017.09 805.474 1020.44L804.14 1020.29C800.231 1015.57 800.396 1003.27 799.144 997.009C798.348 993.037 797.127 989.064 795.846 985.218C784.357 950.727 758.811 919.802 726.189 903.499C719.032 899.923 711.58 897.08 704.13 894.185C700.73 892.863 696.798 891.735 693.604 890.006C692.205 889.248 692.136 887.756 691.682 886.294C691.546 885.856 691.431 885.412 691.274 884.981C689.638 880.499 683.619 877.971 679.618 876.039C679.189 872.431 679.3 868.799 679.323 865.172Z"/>
	<path fill="#F9C6C0" transform="matrix(0.749023 0 0 0.749219 0.0078125 0)" d="M497.612 862.072C499.304 865.569 497.819 1217.25 497.779 1252.68C497.189 1252.94 496.599 1253.28 495.97 1253.44C492.265 1254.4 479.945 1253.74 476.671 1251.72C475.654 1252.18 475.236 1252.29 474.132 1252.07C473.276 1250.33 473.311 1248.4 473.298 1246.49L473.852 867.988L497.612 862.072Z"/>
	<path fill="#FEFDFA" transform="matrix(0.749023 0 0 0.749219 0.0078125 0)" d="M936.972 1065.77C943.209 1067.93 993.17 1077.4 997.101 1076.14L997.191 1212.66C996.703 1213.07 996.676 1213.13 996.021 1213.48C993.641 1214.75 988.799 1215.94 986.181 1215.22C985.651 1215.55 985.492 1215.68 984.959 1215.93C980.85 1217.87 945.77 1225.4 940.129 1226.06C939.081 1226.18 938.416 1225.95 937.461 1225.57C935.73 1217.74 936.792 1207.63 936.759 1199.54L936.861 1136.14L936.749 1091.06C936.719 1082.72 936.208 1074.07 936.972 1065.77Z"/>
	<path fill="#3D3C40" transform="matrix(0.749023 0 0 0.749219 0.0078125 0)" d="M967.31 1095.72C968.773 1096.22 970.054 1096.71 971.08 1097.92C973.611 1100.9 974.72 1105.97 975.273 1109.76C976.65 1119.2 976.702 1146.45 975.597 1156.18L974.954 1156.69C973.022 1156.55 971.727 1156.07 969.975 1155.27C969.745 1155.33 969.519 1155.42 969.284 1155.47C966.62 1155.99 962.681 1155.06 960.405 1153.68C961.334 1134.71 956.773 1112.44 967.31 1095.72Z"/>
	<path fill="#F9C6C0" transform="matrix(0.749023 0 0 0.749219 0.0078125 0)" d="M387.343 717.129C409.759 716.292 433.885 727.187 451.402 740.679C478.941 761.892 492.187 790.22 496.557 824.109C486.266 825.862 475.954 827.403 465.745 829.607C464.201 812.03 460.615 795.71 450.738 780.786C435.945 758.804 412.988 743.635 386.962 738.645C353.783 732.167 322.109 743.926 294.869 762.108C254.597 791.625 237.329 825.531 224.225 872.677C218.564 874.482 212.878 876.206 207.169 877.85C208.044 868.956 210.491 860.286 213.111 851.771C221.789 823.569 233.204 807.238 252.473 785.138C259.429 777.161 280.567 752.425 288.121 747.026C294.871 742.202 364.799 721.774 376.138 718.933C379.873 717.998 383.499 717.393 387.343 717.129Z"/>
	<path fill="#F9C6C0" transform="matrix(0.749023 0 0 0.749219 0.0078125 0)" d="M493.945 375.176L494.105 375.303C494.562 377.134 490.447 383.341 489.485 385.368C485.935 392.854 483.093 400.568 480.518 408.437C466.43 451.483 461.85 495.387 459.419 540.362C452.438 541.934 445.32 542.914 438.313 544.395C426.342 546.97 414.485 550.048 402.774 553.622L402.239 553.028C402.111 546.189 404.017 538.256 405.049 531.425C411.141 491.108 423.326 451.195 445.999 416.914C454.426 404.172 469.814 384.168 483.93 377.824C487.071 376.413 490.587 375.855 493.945 375.176Z"/>
	<path fill="#F9C6C0" transform="matrix(0.749023 0 0 0.749219 0.0078125 0)" d="M562.051 374.136C573.775 376.004 581.206 380.483 589.815 388.535C633.758 429.634 651.939 489.3 653.851 548.112C635.595 544.155 617.519 541.678 598.963 539.78C598.597 490.927 590.871 415.203 562.051 374.136Z"/>
	<path fill="#F9C6C0" transform="matrix(0.749023 0 0 0.749219 0.0078125 0)" d="M464.732 383.798C465.169 383.91 464.903 383.794 465.359 384.402C434.277 409.374 411.082 464.853 402.808 502.814C398.927 520.621 397.623 538.781 394.173 556.639C378.551 560.903 363.289 566.386 348.526 573.039L347.94 572.913C347.867 572.725 347.771 572.544 347.719 572.349C346.901 569.297 348.293 562.703 348.667 559.446C351.781 529.765 359.838 500.814 372.506 473.791C386.624 444.314 409.897 411.376 438.698 394.655C446.857 389.919 455.879 386.932 464.732 383.798Z"/>
	<path fill="#F9C6C0" transform="matrix(0.749023 0 0 0.749219 0.0078125 0)" d="M591.716 381.62C595.957 382.299 600.409 384.37 604.362 386.044C621.281 393.208 636.164 402.708 648.822 416.103C679.031 448.07 699.087 490.445 707.823 533.3C710.093 544.435 711.984 555.893 711.636 567.287C708.168 567.309 696.478 561.319 692.359 559.77C682.024 555.883 671.43 552.967 660.795 550.043C660.501 542.726 660.018 535.417 659.347 528.125C654.049 474.466 634.778 416.858 591.716 381.62Z"/>
	<path fill="#F9C6C0" transform="matrix(0.749023 0 0 0.749219 0.0078125 0)" d="M670.559 898.289C671.267 898.309 671.446 898.627 671.992 899.048C674.278 907.85 675.3 917.424 676.344 926.452C679.463 953.415 680.026 980.304 679.733 1007.41C660.649 1007.32 626.116 1005.7 609.017 1009.49C606.212 1009.81 603.271 1010.7 600.517 1011.35C602.037 983.081 611.502 955.815 627.825 932.683C635.976 921.078 650.394 905.14 663.494 899.87C665.654 899.001 668.268 898.691 670.559 898.289Z"/>
	<path fill="#F9C6C0" transform="matrix(0.749023 0 0 0.749219 0.0078125 0)" d="M677.926 898.669C690.114 899.699 702.134 908.941 711.218 916.617C733.193 935.188 748.553 957.904 756.376 985.662C758.271 992.385 760.057 999.338 760.629 1006.32C735.674 1006.92 710.697 1006.78 685.735 1007.19C685.753 969.956 684.012 935.505 677.926 898.669Z"/>
	<path fill="#FEFDFA" transform="matrix(0.749023 0 0 0.749219 0.0078125 0)" d="M570.02 672.183L605.932 683.574C607.034 699.374 606.319 715.593 606.32 731.453L606.366 817.377L595.936 821.002C587.333 824.354 578.567 827.357 569.885 830.504L570.02 672.183Z"/>
	<path fill="#F9C6C0" transform="matrix(0.749023 0 0 0.749219 0.0078125 0)" d="M720.611 684.478C726.034 684.542 733.039 687.434 738.195 689.154C763.924 697.736 786.122 709.114 805.416 728.415C841.749 764.76 865.732 819.442 865.772 870.976C861.471 869.716 857.145 868.663 852.786 867.634C854.422 822.41 837.19 780.528 807.138 747.267C805.237 745.269 803.311 743.294 801.361 741.344C783.123 723.199 760.205 705.303 733.204 705.526C714.232 705.683 695.436 713.177 682.151 726.836C661.165 748.413 654.88 781.532 655.294 810.517C650.889 809.308 646.502 808.03 642.137 806.684C642.363 781.943 646.151 757.066 657.841 734.981C666.992 717.69 682.347 698.554 700.479 690.536C706.909 687.692 713.917 686.547 720.611 684.478Z"/>
	<path fill="#F9C6C0" transform="matrix(0.749023 0 0 0.749219 0.0078125 0)" d="M512.456 372.791C513.685 372.661 513.808 372.575 514.855 373.194C515.84 376.5 514.375 387.389 514.273 391.626C513.541 421.886 511.343 452.588 512.554 482.833C510.944 484.515 509.315 486.206 507.953 488.099C497.959 501.992 498.361 520.542 500.956 536.649C491.185 537.192 481.424 537.909 471.678 538.798C470.184 539.054 468.703 539.138 467.194 539.227C466.189 530.545 467.726 520.406 468.382 511.636C471.482 470.218 480.745 408.668 504.23 373.688C506.922 373.191 509.729 373.052 512.456 372.791Z"/>
	<path fill="#FEFDFA" transform="matrix(0.749023 0 0 0.749219 0.0078125 0)" d="M538.911 672.234C541.071 672.064 543.433 671.609 545.5 672.366C546.225 680.764 545.774 689.481 545.761 697.925L545.683 743.761C545.634 773.819 547.066 805.618 545.089 835.453L527.778 830.5C523.836 829.37 519.804 828.551 515.8 827.671C514.832 776.393 515.594 724.929 515.544 673.627C523.336 673.225 531.126 672.761 538.911 672.234Z"/>
	<path fill="#FEFDFA" transform="matrix(0.749023 0 0 0.749219 0.0078125 0)" d="M499.017 676.241C499.991 676.135 500.063 676.256 500.924 676.613C502.509 682.161 501.484 703.491 501.538 711.039C501.766 742.637 502.963 774.592 501.662 806.152C494.764 780.558 485.854 762.674 467.309 743.54C448.777 725.498 426.473 715.156 401.313 710.037C410.152 706.519 419.67 703.929 428.693 700.805C452.187 692.768 475.629 684.58 499.017 676.241Z"/>
	<path fill="#FEFDFA" transform="matrix(0.749023 0 0 0.749219 0.0078125 0)" d="M631.847 648.207C659.285 658.372 686.388 669.434 713.869 679.521C709.704 680.135 705.607 681.075 701.66 682.547C675.836 692.178 657.602 717.477 646.433 741.504C639.399 756.952 636.002 774.42 634.836 791.278C634.618 794.443 635.137 805.233 634.394 807.235C634.224 807.692 633.711 807.93 633.369 808.277L632.438 808.02C631.606 806.465 631.453 804.946 631.36 803.212C631.058 797.575 631.559 791.795 631.548 786.134L631.386 745.433C631.347 713.067 630.772 680.556 631.847 648.207Z"/>
	<path fill="#FEFDFA" transform="matrix(0.749023 0 0 0.749219 0.0078125 0)" d="M596.084 573.988C638.164 575.839 708.92 594.342 740.871 622.794C761.897 641.517 753.6 649.051 754.977 673.142L747.578 671.11C747.59 660.221 748.381 648.149 744.545 637.764C742.988 633.55 740.13 628.948 735.764 627.247C734.514 626.761 733.274 626.849 732.095 627.446C720.47 633.336 727.321 651.635 724.271 661.059L723.069 661.289L712.658 657.019C712.396 642.669 714.44 621.317 704.245 609.854C702.07 607.409 699.215 605.679 695.864 605.696C693.301 605.709 690.949 606.934 689.2 608.762C681.559 616.752 684.317 635.549 684.407 645.955C679.029 643.67 673.59 641.619 668.11 639.597C668.31 628.824 669.136 616.927 666.872 606.361C665.756 601.157 663.451 594.985 658.645 592.153C655.601 590.358 651.525 590.059 648.18 591.14C634.456 595.575 642.215 618.281 638.431 625.448C635.895 625.978 631.667 623.419 629.023 622.634C625.597 621.616 622.051 624.394 619.158 625.988C619.272 616.515 620.034 606.066 617.572 596.837C616.264 591.931 613.715 586.747 609.064 584.257C604.52 581.823 600.362 582.413 595.7 583.877C595.658 580.572 595.485 577.253 596.084 573.988Z"/>
	<path fill="#FEFDFA" transform="matrix(0.749023 0 0 0.749219 0.0078125 0)" d="M873.784 302.784C874.258 302.732 874.352 302.712 874.899 302.705C892.862 302.489 911.234 307.194 924.423 319.905C924.688 341.607 924.331 363.457 923.683 385.151L919.022 382.471C919.482 369.057 921.666 336.196 912.737 326.369C911.671 325.195 910.296 324.522 908.706 324.488C907.152 324.454 905.102 325.673 904.06 326.747C896.946 334.08 898.579 360.669 898.415 371.071C897.762 371.118 897.112 371.181 896.46 371.234C893.58 371.47 891.167 372.239 888.453 373.157C888.418 361.232 889.93 339.857 885.304 329.416C883.726 325.854 881.116 322.629 877.318 321.345C875.05 320.578 872.278 320.281 870.093 321.452C866.295 323.489 864.712 328.462 863.515 332.318C860.53 345.289 862.098 369.688 862.139 383.935L852.721 386.844C852.748 369.832 852.566 351.822 848.919 335.124C848.228 331.958 846.747 327.052 843.69 325.438C842.131 324.614 839.027 324.76 837.445 325.451C828.104 329.534 829.754 367.095 829.982 376.25C830.117 381.631 831.525 389.236 829.513 394.219C828.906 395.721 828.196 396.624 826.71 397.322L825.776 396.905C823.208 392.656 824.796 334.381 824.949 324.007C825.443 323.385 825.939 322.784 826.461 322.185C838.304 308.607 856.422 304.012 873.784 302.784Z"/>
	<path fill="#F9C6C0" transform="matrix(0.749023 0 0 0.749219 0.0078125 0)" d="M652.133 410.407C656.012 411.689 659.915 415.158 663.069 417.721C674.247 426.802 684.357 437.405 693.917 448.145C733.24 492.32 747.904 534.596 753.861 592.664C747.743 590.016 741.866 584.796 736.369 581.024C730.737 577.16 724.856 573.791 718.889 570.477C717.345 523.973 702.686 478.852 676.602 440.317C669.224 429.608 660.896 419.994 652.133 410.407Z"/>
	<path fill="#FEFDFA" transform="matrix(0.749023 0 0 0.749219 0.0078125 0)" d="M400.382 930.867C406.735 930.93 412.549 932.692 418.402 934.999C416.337 939.605 415.282 944.447 414.765 949.451C413.938 957.467 414.434 965.919 414.441 973.99L414.476 1017.87C406.59 1019.05 398.722 1020.58 390.863 1021.94C386.362 1022.88 379.811 1025.07 375.416 1023.78C374.245 996.453 375.336 968.62 375.796 941.261C383.469 934.394 390.203 931.857 400.382 930.867Z"/>
	<path fill="#F9C6C0" transform="matrix(0.749023 0 0 0.749219 0.0078125 0)" d="M401.87 416.31L402.229 416.603C400.846 419.765 392.044 429.211 389.451 432.585C384.39 439.151 379.737 446.022 375.52 453.159C358.631 481.491 348.568 512.571 343.413 545.057C341.717 555.741 341.081 566.57 339.172 577.222C328.47 583.217 317.809 589.024 307.94 596.353L307.29 595.541C306.48 586.893 308.81 576.3 310.373 567.774C318.976 520.841 339.653 477.993 372.155 442.908C381.098 433.253 391.015 423.795 401.87 416.31Z"/>
	<path fill="#FEFDFA" transform="matrix(0.749023 0 0 0.749219 0.0078125 0)" d="M641.897 864.505C645.905 863.83 658.765 868.613 662.949 870.099C665.552 871.023 668.745 872.086 669.991 874.727C669.151 877.643 662.165 879.934 659.752 882.631C657.916 884.684 659.198 888.515 657.045 890.622C655.456 892.177 650.73 892.955 648.586 893.543C642.255 895.279 636.682 897.37 630.826 900.281C613.887 908.702 599.757 918.86 586.406 932.21C581.45 937.373 577.12 942.991 572.853 948.722L572.709 885.506C595.975 879.243 618.589 870.484 641.897 864.505Z"/>
	<path fill="#F9C6C0" transform="matrix(0.749023 0 0 0.749219 0.0078125 0)" d="M892.191 951.244C892.569 951.373 893.163 951.939 893.488 952.192C900.216 968.781 901.009 1012.67 901.416 1032.69C900.759 1033.09 900.697 1033.17 899.899 1033.48C895.669 1035.13 857.036 1035.05 853.591 1033.13C853.088 1033.44 852.624 1033.72 852.06 1033.91C849.179 1034.84 845.644 1034.43 842.932 1033.2C846.028 1027.75 846.998 1019.5 848.878 1013.37C851.501 1005 854.763 996.84 858.635 988.969C864.202 977.642 872.171 961.53 883.228 954.894C885.989 953.237 889.158 952.278 892.191 951.244Z"/>
	<path fill="#FEFDFA" transform="matrix(0.749023 0 0 0.749219 0.0078125 0)" d="M498.689 831.323C499.086 831.25 499.857 831.396 500.27 831.435C501.187 833.568 500.769 836.262 500.696 838.55C479.903 842.867 459.253 848.78 438.618 853.862L276.633 894.423L82.4324 942.588C58.463 948.638 33.8666 953.262 10.1493 960.154C9.07339 960.199 8.94605 960.205 8.0254 959.661C7.65709 958.102 7.48165 957.847 8.0838 956.301C9.7769 955.002 11.6011 954.335 13.6447 953.798C20.445 952.013 27.4566 950.917 34.2964 949.229C65.6305 941.802 96.911 934.151 128.135 926.277C220.545 903.116 312.805 879.359 404.909 855.009C436.112 846.842 467.571 839.838 498.689 831.323Z"/>
	<path fill="#FEFDFA" transform="matrix(0.749023 0 0 0.749219 0.0078125 0)" d="M868.657 217.085C871.663 216.72 874.876 216.718 877.894 216.898C888.12 217.508 904.489 221.469 911.283 229.764C917.102 236.868 912.982 252.534 911.853 261.087C900.098 257.726 888.465 256.22 876.25 256.258C861.703 256.75 848.492 260.024 834.693 264.46C834.716 254.729 834.69 244.997 834.614 235.266C834.883 234.899 835.157 234.536 835.436 234.175C843.227 224.096 856.351 218.7 868.657 217.085Z"/>
	<path fill="#F9C6C0" transform="matrix(0.749023 0 0 0.749219 0.0078125 0)" d="M646.645 903.009L647.489 903.372C646.992 905.27 641.966 908.475 640.264 909.902C610.899 934.519 596.376 976.334 593.157 1013.37C581.783 1016.38 570.199 1018.64 558.696 1021.1L557.878 1020.83C556.131 1014.3 564.882 987.565 567.896 980.073C582.559 943.626 610.914 918.191 646.645 903.009Z"/>
	<path fill="#FEFDFA" transform="matrix(0.749023 0 0 0.749219 0.0078125 0)" d="M286 959.532C291.493 959.17 296.845 961.058 301.818 963.158C300.792 965.612 300.018 967.974 299.732 970.626C298.9 978.32 299.427 986.463 299.47 994.212C299.598 1008.09 299.633 1021.96 299.575 1035.84C299.281 1036.04 298.853 1036.35 298.508 1036.51C295.215 1038.01 283.736 1039.49 280.193 1038.49C280.02 1038.59 279.854 1038.71 279.673 1038.79C276.595 1040.26 269.398 1041.37 266.232 1040.39C265.931 1016 265.366 991.465 265.998 967.08C272.177 963.219 278.814 960.686 286 959.532Z"/>
	<path fill="#FEFDFA" transform="matrix(0.749023 0 0 0.749219 0.0078125 0)" d="M274.26 748.809L275.123 748.916C274.453 751.314 264.309 760.271 261.911 762.796C250.076 775.254 234.598 791.843 225.335 806.14C213.131 824.979 206.867 845.216 201.071 866.735C199.929 863.545 200.305 781.202 200.267 772.091C224.892 764.333 249.874 757.237 274.26 748.809Z"/>
	<path fill="#FEFDFA" transform="matrix(0.749023 0 0 0.749219 0.0078125 0)" d="M497.86 847.617L499.463 847.65C500.074 849.168 499.438 851.224 499.192 852.861C488.687 855.208 478.311 858.394 467.836 860.929L353.592 888.95L20.7427 969.646L19.529 969.738C18.6134 968.779 18.6127 968.679 18.4182 967.359C19.7759 965.345 23.0336 964.698 25.2954 964.104C47.697 958.228 70.4407 953.248 92.9506 947.755L223.441 915.635L497.86 847.617Z"/>
	<path fill="#F9C6C0" transform="matrix(0.749023 0 0 0.749219 0.0078125 0)" d="M900.474 953.326C911.301 957.749 922.186 967.222 929.683 976.052C940.819 989.167 946.914 1004.94 950.315 1021.62C951.119 1025.56 952.164 1030 951.828 1034.01C951.257 1034.33 950.942 1034.55 950.343 1034.73C947.359 1035.64 940.088 1033.75 936.728 1033.54C929.998 1033.13 912.999 1035.16 908.001 1032.81C907.614 1006.89 908.117 978.257 900.474 953.326Z"/>
	<path fill="#F9C6C0" transform="matrix(0.749023 0 0 0.749219 0.0078125 0)" d="M544.481 372.431L552.644 372.452C573.474 400.863 583.623 441.999 588.083 476.375C588.906 482.72 590.472 489.616 590.147 496.007C588.64 495.029 588.426 493.799 587.712 492.179C580.088 478.777 568.107 474.498 558.454 463.785C555.671 460.697 553.638 456.786 551.556 453.201L551.315 442.547C551.925 442.096 552.511 441.613 553.072 441.102C555.137 439.241 556.495 436.936 556.544 434.094C556.608 430.315 554.022 427.499 551.66 424.874C551.946 405.138 551.133 391.405 544.481 372.431Z"/>
	<path fill="#FEFDFA" transform="matrix(0.749023 0 0 0.749219 0.0078125 0)" d="M795.432 709.832C800.228 710.397 805.915 713.468 810.525 715.075C829.435 721.667 848.216 728.654 867.189 735.053C867.093 755.827 866.755 776.67 867.332 797.436C867.678 809.885 869.552 822.798 868.832 835.181C865.62 825.125 863.96 814.585 860.594 804.507C851.023 775.857 833.235 747.207 812.486 725.317C807.203 719.743 800.855 715.28 795.432 709.832Z"/>
	<path fill="#FEFDFA" transform="matrix(0.749023 0 0 0.749219 0.0078125 0)" d="M185.614 980.242C189.329 980.321 193.053 981.151 196.707 981.796C196.583 982.354 196.473 982.911 196.357 983.47C194.316 993.358 195.252 1004.25 195.305 1014.31C195.372 1026.85 195.36 1039.39 195.267 1051.92C195.011 1052.12 194.626 1052.43 194.319 1052.58C191.101 1054.19 179.578 1055.67 175.961 1054.72C172.777 1056.22 169.815 1056.94 166.351 1056.06C165.86 1042.6 166.063 1029.03 166.156 1015.56C166.218 1006.58 167.036 996.749 165.134 987.929C171.598 982.995 177.59 981.047 185.614 980.242Z"/>
	<path fill="#FEFDFA" transform="matrix(0.749023 0 0 0.749219 0.0078125 0)" d="M85.079 998.21C89.4214 998.025 93.3926 999.227 97.4601 1000.59L97.613 1041.14C97.7178 1049.95 98.2748 1058.91 97.5975 1067.7C97.4283 1067.83 97.2714 1067.97 97.0897 1068.08C94.1478 1069.78 82.4881 1071.39 79.0946 1070.58C78.6535 1070.98 78.5864 1071.09 77.9641 1071.4C75.3328 1072.67 70.2086 1073.14 67.5088 1072.06C67.3894 1058.93 67.5611 1045.8 67.5947 1032.67C67.6151 1024.72 68.5601 1015.37 66.6009 1007.68C72.3868 1003.03 77.7981 999.865 85.079 998.21Z"/>
	<path fill="#F9C6C0" transform="matrix(0.749023 0 0 0.749219 0.0078125 0)" d="M522.723 372.452L536.868 372.195C544.196 389.732 546.483 406.899 544.379 425.702C543.128 426.573 541.801 427.454 540.813 428.63C539.313 430.414 538.455 432.953 538.793 435.279C539.331 438.973 541.7 441.069 544.457 443.223C544.3 446.21 544.383 449.202 544.423 452.192C541.991 456.583 539.749 461.292 536.356 465.025C530.516 468.946 524.797 473.046 519.208 477.318C519.744 442.344 520.916 407.383 522.723 372.452Z"/>
	<path fill="#FEFDFA" transform="matrix(0.749023 0 0 0.749219 0.0078125 0)" d="M178.777 780.013C178.811 780.042 178.855 780.062 178.88 780.1C178.886 780.11 179.503 781.199 179.507 781.221C180.499 786.018 179.241 808.666 179.138 815.161C178.8 838.72 178.694 862.283 178.822 885.844L159.647 891.884C158.027 890.149 159.311 799.587 159.355 787.929C165.723 785.056 172.28 782.579 178.777 780.013Z"/>
	<path fill="#FEFDFA" transform="matrix(0.749023 0 0 0.749219 0.0078125 0)" d="M538.007 565.184C539.656 564.994 541.399 565.018 543.063 564.96C558.823 564.406 575.915 565.375 588.068 576.682C588.069 585.017 589.846 631.468 586.1 635.398C580.732 629.532 589.472 596.191 579.323 584.299C576.678 581.199 572.475 577.851 568.27 577.756C565.736 577.699 563.418 578.866 561.621 580.592C553.801 588.105 555.645 600.199 555.642 609.95L555.627 632.031C555.615 632.98 555.482 633.557 555.226 634.456C553.86 635.262 552.886 635.125 551.349 635.039C550.35 634.983 548.748 635.147 548.253 634.021C547.65 632.652 548.129 629.022 548.153 627.409C548.322 615.817 551.414 590.356 543.283 581.494C540.936 578.937 537.79 576.76 534.191 576.787C530.871 576.811 527.614 578.58 525.36 580.934C522.887 583.516 521.397 586.918 520.632 590.378C518.401 600.467 519.91 626.236 519.982 637.892L513.168 638.705L512.549 572.861C520.869 569.163 529.015 566.65 538.007 565.184Z"/>
	<path fill="#F9C6C0" transform="matrix(0.749023 0 0 0.749219 0.0078125 0)" d="M703.492 903.038C718.274 905.064 742.718 923.864 753.446 934.687C773.559 954.979 792.062 986.989 791.892 1016.18C784.724 1013.7 774.729 1012.27 768.447 1008.32C768.265 1006.26 768.803 1004.16 768.465 1002.11C767.826 998.241 765.744 993.719 764.704 989.777C754.435 950.843 735.162 926.875 703.492 903.038Z"/>
	<path fill="#F9C6C0" transform="matrix(0.749023 0 0 0.749219 0.0078125 0)" d="M872.989 77.3481C873.548 77.8742 873.698 78.3903 873.843 79.1629C875.491 87.9853 875.168 97.8569 876.218 106.873L886.59 197.71C880.623 197.04 874.82 196.718 868.815 197.016C864.216 197.48 859.675 198.359 855.127 199.171C857.94 184.882 859.824 170.304 861.942 155.894C865.912 129.753 869.595 103.57 872.989 77.3481Z"/>
	<path fill="#F9C6C0" transform="matrix(0.749023 0 0 0.749219 0.0078125 0)" d="M561.841 670.943C562.682 670.854 562.652 671.071 563.283 671.575C564.045 675.955 563.395 681.108 563.383 685.6L563.329 716.742L563.19 833.03C560.122 833.866 557.098 834.941 554.077 835.934L553.52 836.027L552.759 835.344C552.302 815.454 552.645 795.481 552.613 775.584L552.617 671.306L561.841 670.943Z"/>
	<defs>
		<linearGradient id="gradient_0" gradientUnits="userSpaceOnUse" x1="199.21529" y1="887.34625" x2="202.77409" y2="905.75409">
			<stop offset="0" stop-color="#F7C3BB"/>
			<stop offset="1" stop-color="#FFE5DA"/>
		</linearGradient>
	</defs>
	<path fill="url(#gradient_0)" transform="matrix(0.749023 0 0 0.749219 0.0078125 0)" d="M326.127 866.541L327.986 866.419C327.113 867.437 325.2 867.759 323.896 868.091L81.0835 929.877L79.1445 929.82C80.387 928.458 105.486 920.295 109.108 918.998C131.212 911.083 153.129 902.114 175.57 895.229C200.467 887.589 226.318 881.055 251.952 876.451C276.163 872.103 301.64 869.269 326.127 866.541Z"/>
	<path fill="#F9C6C0" transform="matrix(0.749023 0 0 0.749219 0.0078125 0)" d="M623.283 645.795C623.334 645.838 623.395 645.872 623.436 645.924C623.997 646.637 624.048 647.185 624.075 648.068C624.752 669.642 624.027 691.449 623.967 713.047L624.207 811.217C621.781 812.274 618.629 814.223 615.96 813.842C614.709 812.47 615.063 811.348 615.01 809.531L614.571 662.923C613.923 662.606 613.28 662.274 612.63 661.96C611.864 661.591 611.086 661.25 610.346 660.829C608.74 659.915 607.758 658.466 607.303 656.683C606.93 655.222 607.276 654.047 608.102 652.812C611.339 647.969 618.037 647.042 623.283 645.795Z"/>
	<path fill="#FEFDFA" transform="matrix(0.749023 0 0 0.749219 0.0078125 0)" d="M678.247 849.096C690.56 851.855 702.673 855.495 714.857 858.767L786.308 877.879L850.848 894.855C859.699 897.19 868.42 899.801 877.217 902.305C880.129 903.134 883.297 903.555 886.129 904.552C887.036 904.872 888.034 905.299 888.769 905.937C890.376 907.331 889.945 909.009 889.977 910.954C879.953 909.376 869.823 906.218 859.967 903.784C837.892 898.344 815.861 892.726 793.877 886.932C755.434 876.95 716.178 868.649 678.382 856.413L678.247 849.096Z"/>
	<path fill="#FEFDFA" transform="matrix(0.749023 0 0 0.749219 0.0078125 0)" d="M492.195 665.615L493.259 665.696C494.231 666.76 494.43 667.34 494.663 668.756C491.728 672.549 470.125 678.121 464.348 680.139C412.631 698.403 360.526 715.551 308.07 731.569C271.266 742.859 234.137 753.001 197.462 764.774C182.434 769.598 167.75 775.661 152.998 781.27C152.116 781.163 151.632 780.794 150.876 780.353L150.802 779.437C154.248 775.465 185.877 765.115 192.646 762.826C224.883 751.927 257.931 742.977 290.404 732.733C358.043 711.506 425.317 689.13 492.195 665.615Z"/>
	<path fill="#FEEADF" transform="matrix(0.749023 0 0 0.749219 0.0078125 0)" d="M877.384 738.503L887.814 741.903C887.89 753.955 888.852 873.501 886.876 876.408C883.808 875.47 880.703 874.661 877.605 873.827L877.384 738.503Z"/>
	<path fill="#FEFDFA" transform="matrix(0.749023 0 0 0.749219 0.0078125 0)" d="M631.991 633.217C651.917 642.681 673.558 649.883 694.144 657.927C730.916 672.655 767.91 686.821 805.114 700.419C829.572 709.074 853.954 717.943 878.257 727.024C880.459 727.867 884.027 728.332 885.84 729.733C887.35 730.9 887.284 732.396 887.568 734.13C880.401 733.052 857.714 723.665 849.525 720.795C801.138 703.835 753.14 686.032 705.014 668.358C688.114 662.275 671.322 655.896 654.646 649.225C647.55 646.425 639.23 643.961 632.681 640.125C631.62 638.071 631.969 635.482 631.991 633.217Z"/>
	<path fill="#FEFDFA" transform="matrix(0.749023 0 0 0.749219 0.0078125 0)" d="M486.318 557.249C488.352 556.952 490.181 556.572 492.208 557.139C493.572 559.257 493.305 561.675 493.475 564.164C433.451 569.174 340.73 585.877 299.836 634.013C299.218 635.043 298.538 635.991 297.833 636.961L297.15 636.682C297.382 632.673 300.413 627.111 302.946 624.004C335.532 584.038 436.092 562.256 486.318 557.249Z"/>
	<path fill="#F9C6C0" transform="matrix(0.749023 0 0 0.749219 0.0078125 0)" d="M869.216 959.275L869.882 959.476C869.611 960.995 859.025 974.962 857.074 978.734C848.708 995.301 842.098 1012.7 837.351 1030.64C833.905 1030.87 826.952 1027.48 823.758 1025.91C821.171 1026.07 818.807 1024.85 816.541 1023.75C817.415 1020.76 818.288 1017.75 819.29 1014.8C828.062 988.925 844.872 971.209 869.216 959.275Z"/>
	<path fill="#FEFDFA" transform="matrix(0.749023 0 0 0.749219 0.0078125 0)" d="M599.511 559.503C604.343 559.854 609.187 560.178 614.001 560.741C658.969 566.006 726.977 584.965 756.09 622.106C760.697 627.984 764.121 635.639 763.207 643.249L762.689 642.925C760.648 636.687 758.454 631.226 754.414 625.986C746.914 616.259 735.776 608.773 725.169 602.724C685.441 580.068 641.361 571.754 596.621 565.636C597.428 563.524 598.5 561.523 599.511 559.503Z"/>
	<path fill="#FEFDFA" transform="matrix(0.749023 0 0 0.749219 0.0078125 0)" d="M899.171 921.437C916.032 926.187 933.885 928.798 950.308 934.903C950.396 945.65 950.428 956.397 950.404 967.144C936.684 955.967 926.62 950.637 909.691 945.272C907.677 938.873 905.402 935.995 900.206 931.974C900.682 928.057 900.25 925.177 899.171 921.437Z"/>
	<path fill="#FEFDFA" transform="matrix(0.749023 0 0 0.749219 0.0078125 0)" d="M180.482 703.97C185.294 703.196 190.951 703.529 195.785 704.011C201.533 704.584 215.12 706.502 218.658 711.725C220.208 714.013 219.111 741.855 218.409 746.23C217.445 747.123 216.925 747.374 215.638 747.629C212.254 740.326 216.639 729.986 214.634 721.906C213.643 717.913 211.274 715.087 207.727 713.051C205.685 711.879 203.189 710.862 200.815 711.592C187.164 715.79 196.091 746.01 191.439 754.875C189.809 755.214 188.598 755.879 187.121 755.033L186.922 752.656C187.012 741.218 189.399 724.308 182.574 714.455C181.355 712.695 179.724 711.223 177.534 710.9C174.794 710.495 171.752 711.903 169.581 713.467C158.955 721.119 165.074 751.274 163.055 763.771C161.977 764.356 161.851 764.398 160.631 764.303C159.405 761.903 160.098 719.858 159.283 711.825C165.885 707.039 172.483 705.098 180.482 703.97Z"/>
	<path fill="#F9C6C0" transform="matrix(0.749023 0 0 0.749219 0.0078125 0)" d="M918.705 956.184C924.953 957.5 932.374 962.859 937.384 966.676C958.872 983.044 974.165 1012.57 977.752 1039.37C976.951 1039.91 976.523 1040.27 975.533 1040.35C972.25 1040.63 961.739 1037.93 959.175 1035.88C954.688 1001.22 947.356 978.993 918.705 956.184Z"/>
	<path fill="#F9C6C0" transform="matrix(0.749023 0 0 0.749219 0.0078125 0)" d="M692.128 1014.05L760.82 1013.57L758.002 1020.59L688.762 1021.33L623.032 1021.83C622.168 1019.62 621.585 1017.29 620.927 1015.01C644.61 1014 668.422 1014.34 692.128 1014.05Z"/>
	<path fill="#F9C6C0" transform="matrix(0.749023 0 0 0.749219 0.0078125 0)" d="M396.794 1077.58C399.058 1078.13 402.431 1077.69 404.37 1078.59C400.667 1081.1 396.409 1083.36 393.125 1086.38C379.487 1098.9 372.769 1119.25 368.741 1136.89C368.137 1139.54 367.788 1144.26 365.985 1146.14C364.328 1146.47 363.162 1145.82 361.674 1145.19C361.523 1145.25 361.375 1145.31 361.221 1145.35C358.563 1146.14 355.971 1145.69 353.654 1144.27C354.148 1138.46 355.144 1132.7 356.631 1127.06C360.783 1111.06 368.786 1091.93 383.592 1083.01C387.403 1080.72 392.329 1080.37 396.053 1078.06C396.302 1077.91 396.547 1077.74 396.794 1077.58Z"/>
	<path fill="#FEFDFA" transform="matrix(0.749023 0 0 0.749219 0.0078125 0)" d="M745.765 1027.65C748.747 1027.81 751.774 1027.95 754.446 1026.44C753.792 1029.22 753.09 1032.19 751.682 1034.68C751.014 1035.04 750.986 1035.09 750.157 1035.36C745.916 1036.71 732.442 1035.76 727.349 1035.82C698.439 1036.18 669.178 1037.14 640.297 1036.2C638.82 1036.16 637.918 1035.91 636.606 1035.22C634.774 1036.24 633.55 1036.4 631.469 1036.48C630 1035.93 628.973 1035.36 628.117 1033.99C627.298 1032.68 627.15 1031.66 627.464 1030.14C628.763 1028.91 629.549 1028.82 631.358 1028.68C640.763 1027.91 651.043 1028.85 660.544 1028.84L713.272 1028.32C724.077 1028.18 734.991 1028.38 745.765 1027.65Z"/>
	<path fill="#F9C6C0" transform="matrix(0.749023 0 0 0.749219 0.0078125 0)" d="M546.132 471.614C547.349 471.684 548.113 471.771 549.006 472.678C555.669 479.45 556.928 519.454 557.457 529.516L549.039 529.041C545.261 528.682 541.391 528.889 537.598 528.944C537.392 511.67 535.656 486.174 546.132 471.614Z"/>
	<path fill="#F9C6C0" transform="matrix(0.749023 0 0 0.749219 0.0078125 0)" d="M873.712 264.006C890.318 262.673 910.777 265.689 924.812 275.066C931.116 279.277 936.805 285.501 938.112 293.208C938.765 297.06 938.39 301.502 936.11 304.77C935.132 304.594 935.406 304.885 935.345 303.868C935.034 298.675 934.073 293.912 930.927 289.62C922.242 277.771 904.108 272.895 890.357 270.666C872.555 269.026 852.967 270.287 836.287 277.16C832.818 278.603 829.475 280.329 826.29 282.321C822.947 284.413 815.916 291.632 812.416 291.685C812.235 289.603 814.462 287.079 815.77 285.53C828.763 270.135 854.564 265.674 873.712 264.006Z"/>
	<path fill="#F9C6C0" transform="matrix(0.749023 0 0 0.749219 0.0078125 0)" d="M297.801 1088.22C300.628 1089.25 307.492 1088.99 310.381 1088.02C307.841 1092.63 301.963 1095.55 298.477 1099.59C286.798 1113.15 281.277 1133.11 277.88 1150.31C277.574 1150.98 277.213 1151.43 276.761 1152C273.319 1152.34 269.591 1151.85 266.555 1150.13C267.076 1146.58 267.677 1143.05 268.357 1139.54C271.607 1122.53 276.741 1104.7 290.505 1093.14C292.743 1091.26 295.385 1089.86 297.801 1088.22Z"/>
	<path fill="#FEFDFA" transform="matrix(0.749023 0 0 0.749219 0.0078125 0)" d="M538.881 548.36C553.495 546.62 571.787 549.548 584.838 556.269C587.561 557.671 589.597 559.489 590.358 562.607C590.739 564.171 590.552 564.873 589.676 566.158C586.868 566.794 579.429 561.952 576.115 561.052C568.277 558.922 560.521 558.175 552.465 557.559C533.057 557.126 519.695 561.793 502.378 569.282L501.361 560.969C512.344 553.921 526.01 549.794 538.881 548.36Z"/>
	<path fill="#F9C6C0" transform="matrix(0.749023 0 0 0.749219 0.0078125 0)" d="M553.021 654.631C565.196 652.807 589.823 663.137 602.458 667.345C602.504 669.636 602.274 672.005 602.179 674.3C591.271 670.492 571.245 662.427 559.983 663.406L501.749 666.831C501.289 664.772 500.931 662.679 500.526 660.608C517.932 658.084 535.534 656.521 553.021 654.631Z"/>
	<path fill="#F9C6C0" transform="matrix(0.749023 0 0 0.749219 0.0078125 0)" d="M489.44 544.631C491.211 544.444 492.824 544.44 494.598 544.598L494.944 545.23C494.595 545.991 494.236 546.873 493.74 547.549C492.889 548.709 491.621 549.157 490.261 549.434C486.644 550.169 482.619 550.037 478.922 550.443C470.164 551.413 461.432 552.596 452.733 553.993C407.641 561.393 323.226 583.257 295.032 622.567C294.43 623.479 293.726 624.333 293.062 625.201L292.716 624.916C293.479 621.641 295.084 618.873 297.212 616.303C332.214 574.013 436.439 549.543 489.44 544.631Z"/>
	<path fill="#F9C6C0" transform="matrix(0.749023 0 0 0.749219 0.0078125 0)" d="M863.05 98.5933C863.504 107.049 859.217 126.247 857.704 135.641L847.657 200.978C842.823 203.066 838.214 205.334 833.583 207.834C833.363 206.337 833.511 205.373 833.865 203.902C838.976 182.635 845.746 161.552 851.574 140.452C855.223 127.242 858.418 111.071 863.05 98.5933Z"/>
	<path fill="#F9C6C0" transform="matrix(0.749023 0 0 0.749219 0.0078125 0)" d="M882.865 103.004C884.486 104.855 907.166 191.976 908.945 202.625C904.291 200.962 899.712 199.407 894.898 198.248C891.967 184.289 890.856 169.716 889.213 155.544L882.865 103.004Z"/>
	<path fill="#F9C6C0" transform="matrix(0.749023 0 0 0.749219 0.0078125 0)" d="M874.896 204.026C888.658 203.765 907.635 206.898 918.337 216.166C920.962 218.44 923.239 221.559 923.317 225.163C923.354 226.889 922.967 228.908 921.728 230.162L920.96 229.903C919.58 227.506 918.187 225.143 916.211 223.186C904.905 211.989 885.579 209.901 870.405 210.114C865.844 210.497 861.322 211.253 856.884 212.376C844.189 215.716 834.67 221.915 828.008 233.287L827.065 232.966C825.879 231.325 824.911 229.733 824.697 227.671C824.431 225.108 825.69 222.838 827.408 221.036C838.119 209.801 859.928 204.763 874.896 204.026Z"/>
	<path fill="#F9C6C0" transform="matrix(0.749023 0 0 0.749219 0.0078125 0)" d="M223.443 1096.53C225.145 1097.38 227.501 1097.76 229.346 1098.36C228.896 1099.74 224.104 1102.56 222.749 1103.78C220.644 1105.71 218.714 1107.83 216.981 1110.1C206.947 1123.15 202.945 1139.71 198.573 1155.27L197.567 1155.74L195.373 1154.68C194.285 1155.33 192.909 1155.77 191.63 1155.8C190.188 1155.84 189.725 1155.46 188.81 1154.44C188.267 1145.71 193.694 1130.17 197.313 1122.41C203.107 1109.97 210.432 1101.31 223.443 1096.53Z"/>
	<path fill="#F9C6C0" transform="matrix(0.749023 0 0 0.749219 0.0078125 0)" d="M841.647 1039.46C844.268 1040.38 928.015 1040.96 932.982 1039.85C933.801 1041.8 935.399 1044.25 934.94 1046.31C933.447 1046.43 932.552 1045.9 931.27 1045.24C930.722 1045.57 930.549 1045.71 929.987 1045.93C925.214 1047.75 851.374 1048.44 841.763 1047.86C840.651 1047.79 839.9 1047.49 838.91 1047.01C840.405 1044.74 840.935 1042.06 841.647 1039.46Z"/>
	<path fill="#F9C6C0" transform="matrix(0.749023 0 0 0.749219 0.0078125 0)" d="M900.972 424.135L922.924 435.571C918.602 445.704 913.337 455.495 908.384 465.334C906.981 468.356 904.313 475.666 901.496 477.11L900.515 476.139C897.904 468.686 900.728 434.784 900.972 424.135Z"/>
	<path fill="#F9C6C0" transform="matrix(0.749023 0 0 0.749219 0.0078125 0)" d="M191.768 774.997L192.052 775.25C193.659 779.602 193.279 869.066 193.307 880.07C191.564 881.125 189.565 881.854 187.695 882.664C187.514 882.516 187.305 882.397 187.151 882.222C185.251 880.054 187.148 787.391 187.701 777.31C188.557 775.916 190.308 775.551 191.768 774.997Z"/>
	<path fill="#FEFDFA" transform="matrix(0.749023 0 0 0.749219 0.0078125 0)" d="M618.626 1028.43L619.615 1029.01C620.949 1031.07 620.709 1033.5 620.764 1035.88C620.448 1036.11 619.89 1036.55 619.502 1036.75C616.087 1038.47 549.772 1051.77 542.218 1053.07C541.028 1053.27 540.377 1053.2 539.248 1052.78C537.411 1051.94 536.385 1048.22 535.682 1046.44C536.422 1046.61 537.16 1046.8 537.925 1046.69C547.459 1045.38 557.281 1042.14 566.73 1040.06L601.298 1032.66C606.921 1031.45 613.377 1030.68 618.626 1028.43Z"/>
	<path fill="#F9C6C0" transform="matrix(0.749023 0 0 0.749219 0.0078125 0)" d="M143.921 1105.05C146.742 1105.95 150.007 1105.29 152.546 1107.02C152.159 1108.55 146.376 1112.87 144.881 1114.62C141.952 1118.03 139.553 1122.07 137.397 1126.01C134.159 1131.93 131.843 1138.62 130.018 1145.1C128.803 1149.41 128.318 1156.15 125.969 1159.78C125.419 1160.13 125.418 1160.16 124.717 1160.44C122.057 1161.49 119.094 1160.87 116.664 1159.59C116.64 1156.05 117.055 1152.62 117.636 1149.14C120.046 1134.66 126.313 1118.91 137.794 1109.19C139.65 1107.62 141.925 1106.46 143.921 1105.05Z"/>
	<path fill="#F9C6C0" transform="matrix(0.749023 0 0 0.749219 0.0078125 0)" d="M595.09 546.822C626.945 546.486 683.671 562.351 712.466 576.338C725.949 582.888 756.566 600.897 761.464 615.095C731.757 579.715 668.522 561.773 625.018 554.152C616.965 552.741 608.787 552.657 600.73 551.378C597.656 550.89 596.789 549.152 595.09 546.822Z"/>
	<path fill="#F9C6C0" transform="matrix(0.749023 0 0 0.749219 0.0078125 0)" d="M77.3851 1113.18C80.4878 1114.43 83.1122 1114.41 86.3715 1113.8C84.138 1117.31 78.8349 1120.86 75.8451 1124.1C65.3861 1135.43 61.0669 1149.85 57.7662 1164.54L56.581 1164.73C55.8661 1164.96 56.005 1164.93 55.0736 1165.1C52.6755 1165.54 50.4972 1164.95 48.5399 1163.57C48.7702 1158.45 49.7984 1153.22 51.0704 1148.27C54.1187 1136.41 60.3063 1124.04 70.6291 1116.88C72.71 1115.43 75.1927 1114.47 77.3851 1113.18Z"/>
	<path fill="#F9C6C0" transform="matrix(0.749023 0 0 0.749219 0.0078125 0)" d="M848.108 438.216C851.511 442.679 864.544 473.5 867.017 480.219C863.6 481.282 859.817 482.718 856.23 482.785C850.075 469.171 841.273 456.623 834.997 442.997C839.29 441.246 843.745 439.79 848.108 438.216Z"/>
	<path fill="#F9C6C0" transform="matrix(0.749023 0 0 0.749219 0.0078125 0)" d="M869.527 431.295L870.179 431.369C872.294 433.164 880.298 470.853 881.425 476.356C879.238 477.056 877.12 477.734 874.843 478.093C872.856 477.424 873.005 477.057 872.091 475.259C866.535 462.176 860.83 449.157 854.979 436.203L869.527 431.295Z"/>
	<path fill="#FEFDFA" transform="matrix(0.749023 0 0 0.749219 0.0078125 0)" d="M635.815 838.836C637.066 840.964 636.493 844.857 636.462 847.314C628.685 850.132 620.521 852.24 612.621 854.72C597.506 859.588 582.366 864.38 567.203 869.095C567.058 868.91 566.89 868.742 566.769 868.541C566.156 867.52 565.75 864.232 566.387 863.217C569.213 858.715 626.101 842.493 635.815 838.836Z"/>
	<path fill="#F9C6C0" transform="matrix(0.749023 0 0 0.749219 0.0078125 0)" d="M826.421 445.686L827.847 445.876C833.85 452.713 844.243 475.916 849.041 485.348L838.308 488.678C835.128 487.108 819.195 455.6 815.39 449.343L826.421 445.686Z"/>
	<path fill="#FEFDFA" transform="matrix(0.749023 0 0 0.749219 0.0078125 0)" d="M353.921 1166.29C356.239 1167.06 357.635 1166.59 359.732 1168.12C360.089 1168.69 360.421 1169.21 360.514 1169.9C361.12 1174.45 360.138 1182.26 360.144 1187.21L360.136 1243.47L359.153 1244.22C358.813 1244.38 358.503 1244.54 358.147 1244.65C356.592 1245.13 354.843 1245.3 353.395 1244.6C352.302 1237.2 351.976 1170.94 353.921 1166.29Z"/>
	<path fill="#F9C6C0" transform="matrix(0.749023 0 0 0.749219 0.0078125 0)" d="M892.806 423.812L894.144 423.777C894.235 423.924 894.345 424.06 894.416 424.218C895.168 425.897 893.381 469.994 892.722 472.607C891.297 473.218 890.271 473.283 888.761 473.281C886.956 471.843 886.858 469.909 886.228 467.733C883.623 454.676 880.246 441.82 876.861 428.949C882.094 427.038 887.492 425.488 892.806 423.812Z"/>
	<path fill="#FEFDFA" transform="matrix(0.749023 0 0 0.749219 0.0078125 0)" d="M459.638 1161.28C461.534 1161.47 463.427 1161.69 465.318 1161.92C466.74 1170.52 465.502 1181.57 465.447 1190.49L465.248 1250.09L464.456 1251.15C463.259 1251.78 462.456 1251.92 461.139 1251.98C460.41 1252.01 460.188 1251.53 459.666 1251.06C458.287 1241.79 459.255 1231.03 459.24 1221.61C459.207 1201.53 458.864 1181.35 459.638 1161.28Z"/>
	<path fill="#F9C6C0" transform="matrix(0.749023 0 0 0.749219 0.0078125 0)" d="M556.989 473.515C558.036 474.052 558.781 474.688 559.656 475.472C573.82 488.164 575.35 514.938 576.07 532.839C572.067 531.942 568.052 531.389 563.99 530.85C563.888 511.576 562.894 491.977 556.989 473.515Z"/>
	<path fill="#FEFDFA" transform="matrix(0.749023 0 0 0.749219 0.0078125 0)" d="M266.3 1170.75C268.529 1171.29 270.668 1170.99 272.861 1171.87C273.689 1177.09 273.078 1237.05 272.255 1240.61C271.671 1240.98 271.042 1241.43 270.359 1241.62C268.691 1242.09 267.205 1241.43 265.753 1240.7L265.592 1196.16C265.583 1188.01 264.767 1178.74 266.3 1170.75Z"/>
	<path fill="#FEEADF" transform="matrix(0.749023 0 0 0.749219 0.0078125 0)" d="M180.292 689.593C180.435 689.578 180.578 689.557 180.722 689.548C192.063 688.768 209.823 689.192 218.528 697.598C220.27 699.28 220.606 699.917 220.654 702.325C220.677 703.465 220.934 704.291 220.12 705.132C212.395 701.577 205.56 698.526 197.018 697.562C187.764 696.284 176.677 696.356 167.976 700.091C164.5 701.584 160.672 703.868 156.931 704.424C155.993 703.718 155.805 703.856 155.542 702.623C155.22 701.115 155.595 699.361 156.508 698.103C160.013 693.273 174.66 690.261 180.292 689.593Z"/>
	<path fill="#F9C6C0" transform="matrix(0.749023 0 0 0.749219 0.0078125 0)" d="M929.295 439.57L939.877 444.841C932.925 457.717 925.141 470.144 917.827 482.818L916.767 483.572C913.981 482.971 911.43 481.362 908.918 480.048C915.114 466.174 922.054 452.916 929.295 439.57Z"/>
	<path fill="#FEFDFA" transform="matrix(0.749023 0 0 0.749219 0.0078125 0)" d="M895.345 410.079L895.806 410.384C896.489 411.73 896.448 412.311 896.292 413.753C895.939 414.216 895.679 414.768 895.234 415.143C893.749 416.392 804.54 445.72 796.422 448.025L795.354 446.845L795.472 445.577C800.069 441.412 884.676 413.523 895.345 410.079Z"/>
	<path fill="#F9C6C0" transform="matrix(0.749023 0 0 0.749219 0.0078125 0)" d="M184.742 629.062C185.285 629.28 185.583 629.601 186.014 629.987C187.402 643.501 186.288 658.141 186.262 671.779C181.663 671.783 177.231 671.932 172.655 672.448C171.652 671.686 171.486 671.164 171.371 669.895C170.204 657.023 176.957 639.19 184.742 629.062Z"/>
	<path fill="#FEFDFA" transform="matrix(0.749023 0 0 0.749219 0.0078125 0)" d="M187.602 1175.09C187.845 1175.18 188.086 1175.27 188.331 1175.36C190.372 1176.03 192.535 1175.83 194.439 1174.91C194.459 1181.9 195.389 1233.03 194.385 1235.37C194.223 1235.74 193.876 1236.01 193.622 1236.34C192.991 1236.64 192.329 1237 191.637 1237.14C190.005 1237.5 188.542 1236.7 187.169 1235.93C186.451 1228.11 186.003 1180.73 187.602 1175.09Z"/>
	<path fill="#F9C6C0" transform="matrix(0.749023 0 0 0.749219 0.0078125 0)" d="M536.896 474.307C536.965 475.34 537.059 475.032 536.754 475.879C534.936 480.924 532.855 486.214 531.828 491.489C529.455 503.684 530.677 517.668 530.842 530.079C527.296 530.851 523.785 531.86 520.275 532.786C519.496 529.676 519.815 525.566 519.885 522.317C520.27 504.329 523.458 487.222 536.896 474.307Z"/>
	<path fill="#FEFDFA" transform="matrix(0.749023 0 0 0.749219 0.0078125 0)" d="M769.036 1016.27C776.941 1018.91 828.416 1034.6 830.413 1036.57C830.839 1036.99 831.062 1037.58 831.387 1038.08C831.534 1039.67 831.5 1040.28 830.749 1041.75L829.264 1042.19C829.159 1042.18 829.048 1042.19 828.95 1042.15C808.779 1034.34 787.116 1029.46 766.554 1022.54C767.275 1020.42 768.201 1018.35 769.036 1016.27Z"/>
	<path fill="#FEFDFA" transform="matrix(0.749023 0 0 0.749219 0.0078125 0)" d="M761.903 1028.96C774.861 1032.85 787.793 1036.82 800.698 1040.88C806.81 1042.78 814.079 1044.27 819.797 1047.08C820.34 1048.68 819.423 1050.61 818.918 1052.17L817.814 1052.27C814.056 1052.25 762.193 1037.28 758.785 1035.01C760.225 1033.49 761.044 1030.87 761.903 1028.96Z"/>
	<path fill="#F9C6C0" transform="matrix(0.749023 0 0 0.749219 0.0078125 0)" d="M918.689 1053.27C922.656 1055.19 928.947 1053.39 933.455 1054.38C934.057 1055.53 934.058 1055.53 933.807 1056.8C933.284 1057.27 932.812 1057.57 932.12 1057.76C927.524 1058.98 853.669 1059.48 845.17 1058.68C844.052 1058.58 843.316 1058.22 842.352 1057.68C841.806 1057.96 841.264 1058.31 840.676 1058.49C837.641 1059.43 829.927 1059.36 826.981 1057.91L827.117 1057.04C828.933 1055.99 830.7 1055.42 832.799 1055.22C840.661 1054.5 849.004 1055 856.911 1054.95C869.704 1054.87 882.496 1054.51 895.288 1054.52C902.006 1054.53 912.503 1055.79 918.689 1053.27Z"/>
	<path fill="#F9C6C0" transform="matrix(0.749023 0 0 0.749219 0.0078125 0)" d="M192.394 627.878C192.622 628.081 192.862 628.272 193.078 628.488C203.166 638.609 205.076 658.548 205.138 672.064L192.155 671.824C192.107 657.19 191.972 642.505 192.394 627.878Z"/>
	<path fill="#F9C6C0" transform="matrix(0.749023 0 0 0.749219 0.0078125 0)" d="M808.367 451.359C812.535 455.683 827.121 483.601 830.974 490.858C828.524 491.525 826.12 492.496 823.728 493.348C815.725 480.342 807.601 467.41 799.357 454.556L808.367 451.359Z"/>
	<path fill="#FEFDFA" transform="matrix(0.749023 0 0 0.749219 0.0078125 0)" d="M116.55 1180.13C118.632 1180.95 120.643 1180.54 122.677 1181.75C123.386 1189.86 123.736 1225.81 122.353 1232.58C121.516 1233.24 120.495 1233.62 119.432 1233.67C117.909 1233.74 117.305 1233.64 116.231 1232.61C115.31 1225.33 115.035 1186 116.55 1180.13Z"/>
	<path fill="#FEFDFA" transform="matrix(0.749023 0 0 0.749219 0.0078125 0)" d="M612.461 1016.99C612.877 1016.94 613.718 1017.16 614.144 1017.22L614.859 1018.32C614.534 1019.69 614.589 1020.47 613.383 1021.36C612.381 1022.11 611.134 1022.52 609.93 1022.8C601.695 1024.72 535.696 1039.47 532.572 1039.02L531.806 1039.33C530.5 1038.82 530.533 1038.7 529.823 1037.47L530.373 1036.52C539.459 1033.15 550.097 1031.69 559.57 1029.51L612.461 1016.99Z"/>
	<path fill="#F9C6C0" transform="matrix(0.749023 0 0 0.749219 0.0078125 0)" d="M543.456 536.526C551.536 536.533 559.599 537.259 567.55 538.696C574.261 539.937 582.969 541.006 587.167 547.105L586.367 547.285C571.423 541.922 555.509 541.056 539.798 541.355C523.023 542.797 512.517 547.582 497.425 553.752C509.591 541.371 526.599 537.353 543.456 536.526Z"/>
	<path fill="#F9C6C0" transform="matrix(0.749023 0 0 0.749219 0.0078125 0)" d="M945.678 448.8L953.869 453.247C946.09 465.292 937.372 476.643 929.261 488.459C928.835 489.059 928.413 489.13 927.76 489.439C926.058 488.895 924.83 488.556 923.582 487.238C924.152 482.705 941.989 455.059 945.678 448.8Z"/>
	<path fill="#FEFDFA" transform="matrix(0.749023 0 0 0.749219 0.0078125 0)" d="M507.64 832.551C522.175 836.345 543.912 840.966 557.191 846.575C557.964 848.46 557.454 850.704 557.251 852.685C547.159 850.048 537.11 847.216 527.05 844.458C520.866 842.762 514.169 841.404 508.274 838.897C507.245 836.953 507.586 834.694 507.64 832.551Z"/>
	<path fill="#FEFDFA" transform="matrix(0.749023 0 0 0.749219 0.0078125 0)" d="M49.9362 1183.89C52.1299 1184.42 54.3353 1184.4 56.552 1185.06C57.5365 1189.1 57.2849 1226.42 56.3722 1228.87C55.8217 1229.19 55.2794 1229.52 54.6543 1229.67C53.1527 1230.02 51.7126 1229.94 50.3605 1229.19C48.8633 1225.62 49.2883 1189.41 49.9362 1183.89Z"/>
	<path fill="#FEFDFA" transform="matrix(0.749023 0 0 0.749219 0.0078125 0)" d="M507.121 846.564L536.404 854.754C542.854 856.512 549.583 857.986 555.844 860.325C557.336 862.242 557.478 864.481 557.872 866.812C547.662 864.411 515.419 857.074 507.768 852.871C506.785 851.023 507.105 848.611 507.121 846.564Z"/>
	<path fill="#FEFDFA" transform="matrix(0.749023 0 0 0.749219 0.0078125 0)" d="M942.109 1040.87C946.103 1042.95 952.94 1043.29 957.415 1044.25C966.49 1046.2 975.5 1048.43 984.582 1050.36C993.719 1052.29 1003.33 1053.82 1012.13 1056.95L1012.49 1057.8L1011.1 1059.07C1006.94 1059.89 948.469 1048.97 944.616 1046.5C942.876 1045.39 942.419 1042.72 942.109 1040.87Z"/>
	<path fill="#FEFDFA" transform="matrix(0.749023 0 0 0.749219 0.0078125 0)" d="M895.92 906.935C903.6 909.11 958.314 923.032 960.609 925.627L960.263 927.281C960.123 927.337 959.986 927.4 959.843 927.448C958.549 927.885 957.39 928.153 956.022 927.997C948.954 927.188 941.287 924.378 934.344 922.599C923.827 919.904 905.828 916.644 896.445 912.205C895.575 910.545 895.844 908.747 895.92 906.935Z"/>
	<path fill="#FEFDFA" transform="matrix(0.749023 0 0 0.749219 0.0078125 0)" d="M901.409 410.805C905.25 412.355 909.089 414.901 912.751 416.889C922.855 422.374 932.771 428.13 942.771 433.794C948.283 436.916 955.237 439.75 960.151 443.686C961.432 444.711 961.271 447.779 961.376 449.331C959.041 448.435 902.984 416.738 902.496 416.257C901.205 414.983 901.51 412.542 901.409 410.805Z"/>
	<path fill="#FEFDFA" transform="matrix(0.749023 0 0 0.749219 0.0078125 0)" d="M556.701 642.756C557.924 642.635 559.185 642.51 560.417 642.544C566.449 642.711 598.746 653.237 602.587 657.084L601.479 658.127L602.616 657.102C602.305 657.421 602.075 657.846 601.683 658.058C600.271 658.823 568.949 646.916 563.786 646.12C561.267 645.731 558.327 646.334 555.81 646.684C537.683 648.097 519.559 650.397 501.468 652.274L501.352 653.419L500.893 652.169L501.428 651.835L501.261 652.274L502.145 652.245L502.449 651.474C516.648 647.278 541.6 644.288 556.701 642.756Z"/>
	<path fill="#F9C6C0" transform="matrix(0.749023 0 0 0.749219 0.0078125 0)" d="M527.188 302.583C528.976 302.514 530.862 302.378 532.64 302.61C536.514 303.116 540.364 306.154 542.458 309.346C543.689 311.223 543.716 312.286 543.302 314.408C541.982 315.723 541.607 315.929 539.815 316.448C537.094 315.524 534.716 315.136 531.861 314.919C531.692 314.923 531.523 314.925 531.354 314.931C531.073 314.943 530.792 314.965 530.511 314.975C526.241 315.12 522.352 316.481 518.299 317.716C517.587 317.116 517.384 316.92 517.03 316.046C516.328 314.308 516.505 312.924 517.265 311.228C519.306 306.674 522.697 304.333 527.188 302.583Z"/>
	<path fill="#FEEADF" transform="matrix(0.749023 0 0 0.749219 0.0078125 0)" d="M712.028 833.451C717.159 834.526 722.165 836.154 727.18 837.666L727.53 854.694C722.429 853.619 717.289 851.957 712.247 850.593L712.028 833.451Z"/>
	<path fill="#FEFDFA" transform="matrix(0.749023 0 0 0.749219 0.0078125 0)" d="M643.81 815.405C649.294 816.305 654.645 818.2 659.921 819.9L660.15 835.807C654.896 834.131 649.553 832.736 644.235 831.282C643.643 826.023 643.807 820.69 643.81 815.405Z"/>
	<path fill="#F9C6C0" transform="matrix(0.749023 0 0 0.749219 0.0078125 0)" d="M853.752 278.863L854.919 279.183C856.311 284.5 855.433 292.142 855.43 297.746C851.519 298.64 847.716 299.971 843.905 301.217L842.796 301.039C841.326 297.694 842.236 286.001 842.155 281.705L853.752 278.863Z"/>
	<path fill="#F9C6C0" transform="matrix(0.749023 0 0 0.749219 0.0078125 0)" d="M528.599 252.637C529.558 252.775 530.339 253.016 531.255 253.315C533.267 256.573 534.789 289.229 534.363 295.029L533.263 295.507C531.413 295.544 527.814 295.882 526.423 294.655C526.079 288.576 526.952 282.382 527.309 276.308C527.772 268.421 527.967 260.513 528.599 252.637Z"/>
	<path fill="#F9C6C0" transform="matrix(0.749023 0 0 0.749219 0.0078125 0)" d="M873.054 276.518L875.217 276.486C877.881 279.735 876.442 291.229 876.368 295.666C873.746 295.684 871.108 295.935 868.491 296.108C867.056 296.384 865.644 296.886 864.272 296.198C861.73 292.019 863.267 282.857 863.306 277.788C866.497 277.026 869.796 276.829 873.054 276.518Z"/>
	<path fill="#F9C6C0" transform="matrix(0.749023 0 0 0.749219 0.0078125 0)" d="M884.841 276.934C889.18 277.44 893.443 278.081 897.733 278.905C898.381 285.13 897.803 291.786 897.636 298.057C893.461 297.313 889.272 296.645 885.072 296.054C885.037 289.68 884.96 283.307 884.841 276.934Z"/>
	<path fill="#FEFDFA" transform="matrix(0.749023 0 0 0.749219 0.0078125 0)" d="M635.573 855.041C636.921 854.945 636.907 854.832 637.937 855.677L637.982 856.847C636.807 858.117 635.525 858.596 633.933 859.176C627.832 861.399 621.332 862.859 615.115 864.788L570.935 878.668C569.642 878.842 569.71 878.738 568.639 877.958L568.448 876.641C570.7 874.285 627.73 857.347 635.573 855.041Z"/>
	<path fill="#FEFDFA" transform="matrix(0.749023 0 0 0.749219 0.0078125 0)" d="M688.951 828.464C694.249 830.036 699.691 831.23 705.056 832.556C705.109 837.505 705.227 842.427 704.707 847.358C700.906 848.138 693.425 844.99 689.599 843.878C689.344 838.741 689.128 833.603 688.951 828.464Z"/>
	<path fill="#DAD4D0" transform="matrix(0.749023 0 0 0.749219 0.0078125 0)" d="M508.51 674.168L508.994 674.5L508.953 675.1L509.629 675.33C511.12 690.141 509.974 710.676 510.014 726.274L510.168 825.448L509.107 824.663C508.247 822.567 507.841 685.299 508.51 674.168Z"/>
	<path fill="#F9C6C0" transform="matrix(0.749023 0 0 0.749219 0.0078125 0)" d="M178.994 679.588C188.752 678.415 202.331 678.547 211.65 681.404C215.511 682.588 219.838 685.342 223.055 687.775C224.657 688.987 226.401 690.275 226.68 692.384L225.19 693.573L225.492 693.475L224.152 693.609C216.362 685.128 206.511 683.225 195.501 682.12C179.89 679.424 165.258 684.328 152.214 692.39C150.825 693.249 150.226 693.83 148.647 693.429C148.487 692.464 148.256 692.428 148.889 691.57C153.149 685.797 172.182 680.475 178.994 679.588Z"/>
	<path fill="#FEFDFA" transform="matrix(0.749023 0 0 0.749219 0.0078125 0)" d="M756.42 846.804L772.436 851.102C772.497 856.263 772.477 861.425 772.375 866.585C767.449 864.766 762.281 863.486 757.23 862.054C757.339 856.869 757.057 851.95 756.42 846.804Z"/>
	<path fill="#FEFDFA" transform="matrix(0.749023 0 0 0.749219 0.0078125 0)" d="M941.98 1054.5C946.224 1056.43 951.811 1056.9 956.426 1057.78C970.906 1060.52 986.23 1062.14 1000.45 1065.88C1001.83 1066.24 1002.42 1066.27 1003.13 1067.5L1002.44 1068.5C1001.1 1069.15 1000.09 1069.09 998.621 1068.95C988.738 1068.02 978.361 1065.39 968.552 1063.66C959.789 1062.12 949.448 1061.32 941.017 1058.66C940.849 1057.26 941.544 1055.84 941.98 1054.5Z"/>
	<path fill="#F9C6C0" transform="matrix(0.749023 0 0 0.749219 0.0078125 0)" d="M833.577 285.593L834.021 285.718C835.637 289.159 834.569 301.829 834.557 306.262C831.26 308.009 828.16 309.897 825.06 311.974L824.539 311.882C823.166 306.116 823.964 298.283 823.876 292.261C826.912 289.574 830.05 287.581 833.577 285.593Z"/>
	<path fill="#FEFDFA" transform="matrix(0.749023 0 0 0.749219 0.0078125 0)" d="M734.492 840.466C739.266 841.813 744.01 843.264 748.72 844.82C748.212 849.703 748.358 854.733 748.283 859.644C744.69 859.98 738.218 857.377 734.576 856.431C734.418 851.122 734.508 845.778 734.492 840.466Z"/>
	<path fill="#FEFDFA" transform="matrix(0.749023 0 0 0.749219 0.0078125 0)" d="M643.961 839.241C652.954 841.278 661.848 843.92 670.745 846.346C670.743 848.973 670.62 851.599 670.524 854.225C661.585 852.07 652.776 849.501 643.948 846.939L643.961 839.241Z"/>
	<path fill="#F9C6C0" transform="matrix(0.749023 0 0 0.749219 0.0078125 0)" d="M890.888 381.331L891.208 381.636C892.743 387.066 891.458 397.774 891.381 403.774C888.593 404.926 885.708 405.862 882.861 406.86C880.706 404.254 882.049 389 882.097 384.781L890.888 381.331Z"/>
	<defs>
		<linearGradient id="gradient_1" gradientUnits="userSpaceOnUse" x1="506.83011" y1="510.75964" x2="522.51215" y2="508.6535">
			<stop offset="0" stop-color="#FFDBCC"/>
			<stop offset="1" stop-color="#F9FCFF"/>
		</linearGradient>
	</defs>
	<path fill="url(#gradient_1)" transform="matrix(0.749023 0 0 0.749219 0.0078125 0)" d="M521.228 483.791C520.264 488.474 516.644 492.734 515.389 497.488C512.136 509.81 513.163 522.462 512.331 535.01L509.128 535.72C508.349 528.186 507.518 520.594 508.141 513.017C509.078 501.611 512.351 491.389 521.228 483.791Z"/>
	<path fill="#FEFDFA" transform="matrix(0.749023 0 0 0.749219 0.0078125 0)" d="M667.231 821.57C672.006 823 676.745 824.55 681.441 826.221C680.621 831.245 680.629 836.191 680.597 841.264L667.695 837.742L667.231 821.57Z"/>
	<path fill="#F9C6C0" transform="matrix(0.749023 0 0 0.749219 0.0078125 0)" d="M857.445 393.76L859.012 393.842C860.756 398.21 859.563 409.903 859.498 414.95L852.308 417.428L851.204 417.176C849.153 412.896 850.431 401.026 850.499 396.08L857.445 393.76Z"/>
	<path fill="#F9C6C0" transform="matrix(0.749023 0 0 0.749219 0.0078125 0)" d="M898.295 378.772C901.05 379.882 903.751 381.203 906.456 382.433L906.489 405.721C903.715 404.489 900.995 403.1 898.263 401.775L898.295 378.772Z"/>
	<path fill="#FEEADF" transform="matrix(0.749023 0 0 0.749219 0.0078125 0)" d="M524.825 353.367C535.38 352.732 546.365 354.018 556.207 357.98C549.717 358.563 542.918 358.163 536.392 358.132C531.285 358.135 509.204 359.823 506.391 357.856L506.744 356.68C510.726 354.253 520.106 353.695 524.825 353.367Z"/>
	<path fill="#F9C6C0" transform="matrix(0.749023 0 0 0.749219 0.0078125 0)" d="M873.121 387.518L874.174 387.786C875.807 393.963 874.594 403.053 874.543 409.567L867.919 412.322L867.222 412.352C865.562 410.29 866.459 393.579 866.497 389.811L873.121 387.518Z"/>
	<defs>
		<linearGradient id="gradient_2" gradientUnits="userSpaceOnUse" x1="587.45795" y1="512.56354" x2="573.45044" y2="510.56146">
			<stop offset="0" stop-color="#FFE0DA"/>
			<stop offset="1" stop-color="#FEFFF4"/>
		</linearGradient>
	</defs>
	<path fill="url(#gradient_2)" transform="matrix(0.749023 0 0 0.749219 0.0078125 0)" d="M574.294 486.103C575.166 486.797 576.024 487.521 576.784 488.339C588.295 500.726 586.498 520.101 586.157 535.739C585.765 535.672 585.258 535.608 584.901 535.438C583.339 534.695 583.425 533.98 583.172 532.426C582.48 528.175 582.761 523.655 582.43 519.349C581.524 507.565 578.864 496.978 574.294 486.103Z"/>
	<path fill="#F9C6C0" transform="matrix(0.749023 0 0 0.749219 0.0078125 0)" d="M904.813 281.407C908.219 282.441 911.484 284.079 914.729 285.538L914.417 303.408L905.129 300.015C905.185 293.792 905.163 287.622 904.813 281.407Z"/>
	<path fill="#FEFDFA" transform="matrix(0.749023 0 0 0.749219 0.0078125 0)" d="M581.563 833.731L582.23 833.964C583.473 837.94 582.576 844.052 582.512 848.284C581.079 848.791 579.561 849.388 578.066 849.674C576.022 850.066 573.892 848.078 572.337 846.934C570.357 845.982 568.741 845.281 567.368 843.474C567.182 842.628 566.819 841.959 567.21 841.127C568.784 837.774 577.947 835.189 581.563 833.731Z"/>
	<path fill="#F9C6C0" transform="matrix(0.749023 0 0 0.749219 0.0078125 0)" d="M816.793 408.878L817.663 409.385C818.749 415.7 817.843 423.378 817.733 429.845L810.965 432.09L810.478 431.901C808.776 429.43 809.905 414.532 809.993 410.599L816.793 408.878Z"/>
	<path fill="#F9C6C0" transform="matrix(0.749023 0 0 0.749219 0.0078125 0)" d="M170.281 638.634C170.801 641.241 166.137 655.983 165.456 659.987C164.724 664.295 165.308 668.82 165.389 673.177C164.045 674.713 162.478 674.942 160.589 675.581C160.068 673.816 159.698 672.065 159.533 670.23C158.533 659.11 163.304 647.1 170.281 638.634Z"/>
	<path fill="#FEFDFA" transform="matrix(0.749023 0 0 0.749219 0.0078125 0)" d="M782.126 853.308L792.945 856.981C792.571 861.835 792.534 866.735 792.385 871.601L781.871 869.136C782.245 863.896 782.09 858.563 782.126 853.308Z"/>
	<path fill="#F9C6C0" transform="matrix(0.749023 0 0 0.749219 0.0078125 0)" d="M802.048 413.209L802.533 413.471C803.994 416.059 803.035 430.492 803.079 434.519L797.333 436.79L796.302 436.456C794.812 430.184 795.82 421.725 795.835 415.194L802.048 413.209Z"/>
	<path fill="#F9C6C0" transform="matrix(0.749023 0 0 0.749219 0.0078125 0)" d="M831.028 402.458L831.754 402.781C833.422 408.65 832.229 417.708 832.202 423.943L826.233 426.485L826.062 426.502L825.34 425.895C824.656 419.153 825.152 411.937 825.166 405.139L831.028 402.458Z"/>
	<path fill="#F9C6C0" transform="matrix(0.749023 0 0 0.749219 0.0078125 0)" d="M206.732 639.792C208.581 641.016 209.861 643.189 210.95 645.092C215.72 653.427 219.229 665.119 216.664 674.645C215.571 674.899 214.209 674.629 213.17 674.186C212.787 674.022 211.952 673.412 211.748 673.072C210.871 671.615 211.342 663.696 211.251 661.677C210.908 654.034 209.194 646.998 206.732 639.792Z"/>
	<path fill="#F9C6C0" transform="matrix(0.749023 0 0 0.749219 0.0078125 0)" d="M529.393 322.656C531.682 322.499 533.839 322.245 535.814 323.488C535.87 324.202 535.857 324.775 535.623 325.46C533.857 330.642 534.28 334.889 533.015 338.404L529.728 339.257C527.906 338.728 527.53 338.85 526.419 337.233C526.802 329.628 523.239 328.394 522.995 324.645C524.917 323.322 527.143 323.092 529.393 322.656Z"/>
	<path fill="#FEFDFA" transform="matrix(0.749023 0 0 0.749219 0.0078125 0)" d="M623.283 633.288C623.884 634.067 624.003 635.087 623.885 636.022C623.779 636.867 623.622 637.073 622.943 637.543C619.514 639.92 602.286 644.118 597.684 644.675C596.01 644.877 594.389 644.666 592.733 644.401C592.178 643.791 592.095 643.525 591.85 642.761C594.975 639.599 617.711 634.714 623.283 633.288Z"/>
	<path fill="#FEFDFA" transform="matrix(0.749023 0 0 0.749219 0.0078125 0)" d="M800.901 859.358C804.057 860.038 807.141 861.041 810.233 861.965C810.74 866.812 810.328 871.652 810.043 876.502L801.288 874.654C801.189 869.554 801.06 864.456 800.901 859.358Z"/>
	<path fill="#FEEADF" transform="matrix(0.749023 0 0 0.749219 0.0078125 0)" d="M607.572 824.437L608.857 824.59C610.438 828.057 609.549 836.099 609.597 840.204L602.892 842.393L602.104 842.249C600.48 839.08 601.347 830.372 601.302 826.556L607.572 824.437Z"/>
	<path fill="#F9C6C0" transform="matrix(0.749023 0 0 0.749219 0.0078125 0)" d="M349.266 1152C354.094 1153.25 361.684 1150.71 365.491 1154.37C365.68 1155.92 365.088 1156.92 364.442 1158.27C364.062 1158.83 363.542 1159.3 363.079 1159.8C360.288 1160.14 356.932 1160.86 354.147 1160.53C352.084 1160.29 350.405 1159.52 349.158 1157.87C348.637 1155.77 348.938 1154.1 349.266 1152Z"/>
	<path fill="#FEEADF" transform="matrix(0.749023 0 0 0.749219 0.0078125 0)" d="M817.735 864.196C820.85 865.119 823.878 866.317 826.921 867.451L826.859 881.119L818.304 879.021C819.603 873.965 818.62 869.236 817.735 864.196Z"/>
	<path fill="#FEFDFA" transform="matrix(0.749023 0 0 0.749219 0.0078125 0)" d="M622.281 819.443L622.891 819.543L623.601 820.631C624.064 825.783 624.575 829.989 623.154 835.082C621.571 836.731 620.571 836.79 618.406 837.406C617.751 837.318 618.172 837.422 617.244 836.817C616.693 832.28 615.399 826.171 617.255 821.844C618.008 820.09 620.614 819.891 622.281 819.443Z"/>
	<path fill="#F9C6C0" transform="matrix(0.749023 0 0 0.749219 0.0078125 0)" d="M913.379 387.155C915.293 388.128 916.746 389.482 918.34 390.891L918.105 411.667C916.435 411.29 914.793 410.149 913.287 409.33C913.229 401.939 913.259 394.546 913.379 387.155Z"/>
	<path fill="#F9C6C0" transform="matrix(0.749023 0 0 0.749219 0.0078125 0)" d="M921.44 290.302C923.033 291.374 924.502 292.69 925.57 294.293C928.969 299.394 927.241 306.529 926.145 312.096C924.432 310.359 922.351 308.887 920.445 307.362C920.908 301.695 921.117 295.98 921.44 290.302Z"/>
	<path fill="#FEEADF" transform="matrix(0.749023 0 0 0.749219 0.0078125 0)" d="M850.178 874.151C852.659 874.491 855.162 875.049 857.628 875.501L857.689 889.102L849.844 886.989L850.178 874.151Z"/>
	<path fill="#FEFDFA" transform="matrix(0.749023 0 0 0.749219 0.0078125 0)" d="M675.512 882.568C676.469 882.555 677.299 882.8 678.207 883.098C680.22 883.759 681.102 884.678 682.039 886.527C682.066 888.191 682.051 888.298 681.118 889.671C678.903 890.669 677.717 890.332 675.405 890.105C674.864 890.125 674.324 890.141 673.783 890.154C671.004 890.219 668.941 890.429 666.79 888.372C666.66 887.411 666.452 887.281 667.009 886.408C668.752 883.674 672.598 883.248 675.512 882.568Z"/>
	<path fill="#FEFDFA" transform="matrix(0.749023 0 0 0.749219 0.0078125 0)" d="M643.951 854.91C650.807 855.989 664.961 859.003 670.772 862.388C672.146 863.189 671.973 864.049 672.261 865.488C666.373 864.963 650.45 861.005 645.521 858.199C644.104 857.393 644.265 856.386 643.951 854.91Z"/>
	<path fill="#F9C6C0" transform="matrix(0.749023 0 0 0.749219 0.0078125 0)" d="M925.552 395.203C926.942 395.917 927.959 396.607 929.145 397.624C931.789 403.284 930.3 412.399 930.263 418.623C928.846 418.01 927.899 417.376 926.697 416.404C924.083 410.718 925.55 401.485 925.552 395.203Z"/>
	<path fill="#FEFDFA" transform="matrix(0.749023 0 0 0.749219 0.0078125 0)" d="M834.758 869.589L841.814 871.957L842.082 884.627L834.814 882.913L834.758 869.589Z"/>
	<path fill="#F9C6C0" transform="matrix(0.749023 0 0 0.749219 0.0078125 0)" d="M464.313 1145.29L465.158 1146.12C465.942 1148.46 465.599 1150.98 465.488 1153.41C465.039 1153.66 465.092 1153.64 464.524 1153.88C461.73 1155.05 458.858 1155.3 456.047 1154.12L455.462 1153.7C454.592 1151.27 454.653 1148.67 454.538 1146.11C457.699 1146.72 461.409 1146.85 464.313 1145.29Z"/>
	<path fill="#FEFDFA" transform="matrix(0.749023 0 0 0.749219 0.0078125 0)" d="M879.678 881.88L886.442 883.559L886.405 896.638L879.629 894.644L879.678 881.88Z"/>
	<path fill="#F9C6C0" transform="matrix(0.749023 0 0 0.749219 0.0078125 0)" d="M262.428 1157.64C266.393 1158.58 272.585 1156.97 275.847 1159.67C275.97 1161.39 275.689 1161.81 274.971 1163.33L273.689 1164.77C271.931 1165.17 270.051 1165.67 268.241 1165.57C265.9 1165.44 264.357 1164.44 262.785 1162.79C262.033 1160.86 262.135 1159.67 262.428 1157.64Z"/>
	<path fill="#DAD4D0" transform="matrix(0.749023 0 0 0.749219 0.0078125 0)" d="M886.775 481.281C887.491 481.371 887.063 481.256 887.968 481.874C885.564 483.888 835.698 497.222 827.978 499.764L827.469 499.764L827.376 498.749C830.947 496.191 877.951 483.826 886.775 481.281Z"/>
	<path fill="#FEEADF" transform="matrix(0.749023 0 0 0.749219 0.0078125 0)" d="M842.447 397.991C842.578 398.156 842.736 398.303 842.841 398.485C844.128 400.718 843.827 416.442 843.181 419.537C842.828 421.228 842.044 421.315 840.676 422.136C840.538 422.011 840.381 421.903 840.261 421.761C838.264 419.386 839.049 405.114 839.597 401.586C839.931 399.441 840.788 399.135 842.447 397.991Z"/>
	<path fill="#F9C6C0" transform="matrix(0.749023 0 0 0.749219 0.0078125 0)" d="M937.608 403.201C938.942 403.712 939.876 404.339 940.992 405.194C943.559 410.198 942.052 419.651 941.98 425.356C940.949 424.914 939.415 424.369 938.707 423.47C936.013 420.055 937.466 407.596 937.608 403.201Z"/>
	<path fill="#F9C6C0" transform="matrix(0.749023 0 0 0.749219 0.0078125 0)" d="M184.685 1162C188.613 1163.24 192.684 1161.65 196.579 1163.04C197.429 1164.7 196.885 1165.27 196.365 1167.01C196.128 1167.75 195.803 1168.31 195.421 1168.99C194.046 1169.35 192.645 1169.75 191.226 1169.89C188.554 1170.15 187.057 1169.46 185.071 1167.76C184.035 1165.93 184.483 1164 184.685 1162Z"/>
	<path fill="#FEFDFA" transform="matrix(0.749023 0 0 0.749219 0.0078125 0)" d="M865.294 878.132L871.713 879.857L871.781 892.205C869.616 891.836 867.6 891.767 865.999 890.124C864.361 886.763 865.218 881.83 865.294 878.132Z"/>
	<path fill="#FEFDFA" transform="matrix(0.749023 0 0 0.749219 0.0078125 0)" d="M632.872 815.214L635.388 815.587C636.57 817.575 636.641 820.472 636.667 822.744C636.71 826.545 636.816 830.431 634.129 833.226L632.504 832.85C631.75 831.904 631.656 831.217 631.549 830.043C631.208 826.306 630.53 818.068 632.872 815.214Z"/>
	<path fill="#F9C6C0" transform="matrix(0.749023 0 0 0.749219 0.0078125 0)" d="M113.796 1167.01C113.934 1167.1 114.064 1167.2 114.21 1167.27C117.248 1168.78 122.613 1168.2 125.825 1167.43C125.454 1169.46 125.169 1171.09 124.092 1172.86C123.752 1173.46 123.301 1174 122.893 1174.55C119.664 1175.19 116.982 1174.45 113.885 1173.52C113.5 1171.16 113.247 1169.38 113.796 1167.01Z"/>
	<path fill="#FEFDFA" transform="matrix(0.749023 0 0 0.749219 0.0078125 0)" d="M593.297 829.16C593.867 829.375 593.902 829.268 594.191 829.799C595.534 832.27 594.932 840.208 594.294 843.071C593.836 845.123 592.891 845.337 591.2 846.313C591.016 846.126 590.817 845.955 590.65 845.754C588.813 843.531 589.134 834.83 589.886 832.014C590.372 830.189 591.751 829.926 593.297 829.16Z"/>
	<path fill="#F9C6C0" transform="matrix(0.749023 0 0 0.749219 0.0078125 0)" d="M949.629 410.293L952.108 411.822C954.823 415.678 953.331 426.221 953.288 431.123C952.38 430.771 951.53 430.28 950.668 429.827C948.126 425.542 949.58 415.425 949.629 410.293Z"/>
	<path fill="#FEFDFA" transform="matrix(0.749023 0 0 0.749219 0.0078125 0)" d="M894.156 885.522C895.27 885.842 897.47 886.193 898.244 886.991C900.798 889.621 899.485 896.781 899.346 900.182C898.006 899.894 896.633 899.731 895.557 898.818C892.998 896.649 894.069 888.51 894.156 885.522Z"/>
	<path fill="#FEFDFA" transform="matrix(0.749023 0 0 0.749219 0.0078125 0)" d="M907.538 889.887C909.238 890.279 910.663 890.454 911.921 891.773C912.445 893.128 912.842 894.284 912.751 895.755C912.593 898.301 912.611 900.84 912.602 903.39C910.811 903.007 909.421 902.797 908.006 901.583C906.289 898.075 907.269 893.679 907.538 889.887Z"/>
	<path fill="#FEFDFA" transform="matrix(0.749023 0 0 0.749219 0.0078125 0)" d="M920.031 893.48C921.843 893.768 923.053 893.893 924.447 895.142C925.88 898.485 925.086 903.077 925.034 906.701C923.297 906.351 922.125 906.191 920.84 904.916C919.413 901.401 920.028 897.237 920.031 893.48Z"/>
	<path fill="#FEFDFA" transform="matrix(0.749023 0 0 0.749219 0.0078125 0)" d="M932.661 897.013C934.31 897.326 935.36 897.447 936.563 898.74C937.064 900.165 937.357 901.327 937.248 902.849C937.07 905.326 937.034 907.791 936.987 910.274C935.729 910.016 934.398 909.886 933.415 908.99C931.374 907.131 932.54 899.614 932.661 897.013Z"/>
	<path fill="#FEFDFA" transform="matrix(0.749023 0 0 0.749219 0.0078125 0)" d="M893.363 937.269C893.518 937.328 893.682 937.369 893.83 937.445C896 938.571 900.328 940.873 901.273 942.971C899.394 943.96 897.763 943.64 895.687 943.594L885.921 943.726C888.526 941.674 890.971 939.567 893.363 937.269Z"/>
	<path fill="#DAD4D0" transform="matrix(0.749023 0 0 0.749219 0.0078125 0)" d="M896.23 481.95C900.628 483.308 929.356 496.551 931.498 498.788C931.066 498.767 930.406 498.757 929.953 498.668C925.45 497.784 898.41 485.046 896.23 481.95Z"/>
	<path fill="#F9C6C0" transform="matrix(0.749023 0 0 0.749219 0.0078125 0)" d="M49.8311 1172.02C52.3098 1172.19 56.8911 1171.93 58.6598 1173.61C58.5721 1175.11 58.1935 1175.35 57.2901 1176.51C56.5282 1177.68 55.1479 1178.52 53.7311 1178.68C52.4518 1178.83 51.3093 1178.41 50.4487 1177.44C49.111 1175.93 49.6842 1173.86 49.8311 1172.02Z"/>
	<path fill="#FEFDFA" transform="matrix(0.749023 0 0 0.749219 0.0078125 0)" d="M546.877 431.718C548.524 431.113 550.353 431.934 550.995 433.567C551.637 435.199 550.858 437.046 549.24 437.725C548.16 438.178 546.919 438.011 545.998 437.289C545.076 436.567 544.618 435.402 544.8 434.245C544.983 433.089 545.777 432.121 546.877 431.718Z"/>
	<path fill="#F9C6C0" transform="matrix(0.749023 0 0 0.749219 0.0078125 0)" d="M815.517 296.732C817.069 299.371 816.387 304.717 816.049 307.798L815.126 308.33C814.09 306.782 812.838 304.694 812.702 302.815C812.515 300.224 813.957 298.625 815.517 296.732Z"/>
	<path fill="#726C74" transform="matrix(0.749023 0 0 0.749219 0.0078125 0)" d="M960.506 416.806L960.965 417.301C961.937 422.839 961.404 429.152 961.19 434.763L960.634 434.544C958.876 431.736 960.324 420.564 960.506 416.806Z"/>
	<path fill="#F9C6C0" transform="matrix(0.749023 0 0 0.749219 0.0078125 0)" d="M522.727 227.968C523.736 233.671 527.521 236.684 531.903 239.96C529.374 239.529 526.805 238.457 525.083 236.501C522.896 234.017 522.626 231.136 522.727 227.968Z"/>
	<path fill="#FEFDFA" transform="matrix(0.749023 0 0 0.749219 0.0078125 0)" d="M523.853 345.894C526.122 345.4 528.772 345.383 531.094 345.34C533.225 345.3 534.36 345.09 535.926 346.586C531.987 347.085 527.256 348.249 523.853 345.894Z"/>
</svg>
